<svg xmlns="http://www.w3.org/2000/svg" viewBox="0 0 324.21 476.9"><defs><style>.cls-1{fill:#E0E0E0;}</style></defs><title>資產 1</title><g id="圖層_2" data-name="圖層 2"><g id="圖層_1-2" data-name="圖層 1"><path class="cls-1" d="M71.19,124.51c.5.13,1.66.32,1.45.19l-1.94-.44Z"/><path class="cls-1" d="M74.92,124.55a31.26,31.26,0,0,0-4.37-1c1.86.46,1.07.34,3.28.87.21.14-.66,0-1.37-.1.49.12-.46.06.76.34,1.53.16,1.62,0,.4-.38C74.06,124.35,74.56,124.48,74.92,124.55Z"/><path class="cls-1" d="M79.5,115.72l-.24,0A.56.56,0,0,0,79.5,115.72Z"/><path class="cls-1" d="M81.34,110a.93.93,0,0,0,.41.11A1.17,1.17,0,0,0,81.34,110Z"/><path class="cls-1" d="M83.63,109.23l-.14,0C83.68,109.28,83.78,109.26,83.63,109.23Z"/><path class="cls-1" d="M79.5,115.72l.64-.06C79.5,115.55,79.65,115.67,79.5,115.72Z"/><path class="cls-1" d="M70.43,122.43a2.52,2.52,0,0,0,.5.17,1.06,1.06,0,0,1-.19-.11Z"/><path class="cls-1" d="M80.72,118.54v0l.79.16Z"/><path class="cls-1" d="M80.7,120.58c.08,0-1.58-.32-2.31-.46a7.23,7.23,0,0,1,1.13.28Z"/><path class="cls-1" d="M77.24,123.2l.22.1Z"/><path class="cls-1" d="M81.29,117.17l.6.07Z"/><path class="cls-1" d="M69.87,62.34l.3,0A1,1,0,0,0,69.87,62.34Z"/><path class="cls-1" d="M77.94,59.19l.09,0,.94-.11Z"/><path class="cls-1" d="M86,107.59h0C86.12,107.67,86.09,107.64,86,107.59Z"/><path class="cls-1" d="M85.83,90.27c-1.51.15-1.92-.37-3.6-.12A19.57,19.57,0,0,0,85.83,90.27Z"/><path class="cls-1" d="M70.66,122.42s0-.06,0-.08S70.6,122.39,70.66,122.42Z"/><path class="cls-1" d="M82.23,90.15h0l-.16,0Z"/><path class="cls-1" d="M85.36,103.18c-.29,0-.52,0-.74,0Z"/><path class="cls-1" d="M82.69,106.16l.23-.06C82.76,106.12,82.71,106.14,82.69,106.16Z"/><path class="cls-1" d="M83.13,101.33c.13,0,.36,0,.14-.11h-.2C83.3,101.26,83.4,101.3,83.13,101.33Z"/><path class="cls-1" d="M83.24,99.61h-.35l.09.06Z"/><path class="cls-1" d="M71.14,67.2c.47-.08,1-.14,1.5-.2C71.45,67.12,71,66.92,71.14,67.2Z"/><path class="cls-1" d="M71.37,122.6a4.85,4.85,0,0,1-.71-.18l.08.07Z"/><path class="cls-1" d="M69.87,100.26l.27-.24C70,100.08,69.87,100.17,69.87,100.26Z"/><path class="cls-1" d="M72,78.9l-.2-.06S71.81,78.88,72,78.9Z"/><path class="cls-1" d="M69.94,99.24a9,9,0,0,0,1.17-.06l-.43-.06Z"/><path class="cls-1" d="M72.66,67h0Z"/><path class="cls-1" d="M68.52,65.64c0,.25,2.17-.08,3.45-.14.65.24-1.62.28-2.74.48.6.13,2.64.1,2.57.24a8.07,8.07,0,0,1-1,.09c1.78,0,.14.57,2.37.61-.2,0-.38.06-.55.08,1.1-.13,2.23-.23,3-.28,0,.11,1.41.09,0,.25,0-.07-.54,0-1,0l.64.07c-2.07.27-.73-.1-2.27,0,.7.18,2.44.31,1.87.53-2,.2-.72-.36-2.51,0l.75-.33c-3.18.46.21-.18-3.2.28-.56.4,1.07.31.51.71,1.13,0,1.66-.16,2.8-.16,2.06.35-5.08.77-2.35.94,1.36,0,3.93-.15,2.59.21l-2.3.07c-.21.36,3.31,0,1.79.44-.91,0-.78-.22-1-.15-1.8.36,1.32.07,1.33.26l-2,.17c.35.34,1.85.65,2.25,1a10.74,10.74,0,0,0-1.87.12c1.06.45-.17,1.1-1.36,1.66l1.76.09a4.28,4.28,0,0,1-1.13.09c-.66.23,1.12-.05,1.81,0,.13.1-1,.19-1.53.15,1.5.26,3.26.81,1.39,1.26L72,74.38c-.7.31,3.62.15,2,.48l-.32,0c-.73.63.92,1.24-1.73,1.8,2.53,0-1.12.64,2.42.56a17.6,17.6,0,0,0-3.54.84c-.16.13,2.21.13,2.59.28l-1.85,0,2,.17-2.21.17.48.14a5.48,5.48,0,0,1,1.36-.15c.84.21-1.28.6-2.22.63l1.58.52A8.35,8.35,0,0,1,71,79.69c1.89.26-2,.1-.21.33.42,0,1.1,0,1.48,0-1.12.16-1.13.47-.65.69l-1.28,0c-.32.41.62.85.6,1.31a9.9,9.9,0,0,1,3,0l-2,.08a18.2,18.2,0,0,1,2.21,0,9.71,9.71,0,0,1-2.85,0l.68.2c-.59,0-.9,0-1.64,0,1.22.07-2,.37.15.48H70c0,.46.66.66.77,1a17.24,17.24,0,0,1,2.68.26c-.54.28-1.87.58-1.73.91a13.78,13.78,0,0,0,2.43.19c-1.54,0-1.4.34-2.5.16.25.4.3.51,1.54,1a8.11,8.11,0,0,1,1.43-.07c.26.09-.64.2-1.38.18l-.16,0c2.3.6-4.49,1.24-1.29,1.74l-.16,0,1.66.5c-.28.21-1.16-.15-2.11,0,2.55.56-.39.79,1.3,1.24-4.54.2.29,1.15-2.61,1.5H71c1,.14-.61.11-.86.19a9.74,9.74,0,0,1,1.54,0c1.27,1-1.64,1.9-2.64,2.81-.3.33,5.51.47,2.94.79L70,95c2.35.84-.15,1.45,1.81,2.27a4.48,4.48,0,0,1-1-.17c-1.44.06-.1.54,1.07.62a13.65,13.65,0,0,1-1.66,0c-.86.1,1.81.49.37.48a1.79,1.79,0,0,1-.57-.11c.69.15-.2.44,1.46.46-.81.21.71.55-.29.7,1.84.26-.92.38,1.7.61-2.71-.21-2.22.31-1,.57-.81-.12-.86.08-2-.07,0,.19.51.4,1.91.48-3.27.09,2.54.91-1.62.77a11.62,11.62,0,0,1,2.94,1.86c-2.7-.25-.23-.59-3.06-.81,1.07.57,3.36,1.06,2.67,1.49a5.49,5.49,0,0,1-1.62-.27c1.07.59-.33.91,1.09,1.48a3.64,3.64,0,0,1-.72-.16c.08.09-.41.16.81.27l-.32-.12a33,33,0,0,1,4.61.82c-3.49-.5-.93.34-5.34-.34a7.62,7.62,0,0,0,1.62.28,4.57,4.57,0,0,1-1.65-.14c.64.37,1.95.39,1.89.67-.59-.07-.81-.15-1.51-.25,1.15.26,2.29.52,1.76.71-.35-.06-.82-.08-.81-.15.14.42,3,1,1.85,1.34-2.56-.41-.86.06-3.09-.17l.64.31,1.09,0c-.07.2,1.53.57.78.66l-.9-.26.38.44.87-.12c1.12.34,2.82.3,2.16.51-.21-.09-.05.2-1.37.16h0c.7.18,1.43.38.86.47s-2.46-.33-2.93-.36c1.84.33.45.55,2.42.92-.46-.1-1.63-.24-1.87-.26l1.5.27a6.32,6.32,0,0,1-1.66-.11c-.31.26,2.83.26,1.58.45a4.56,4.56,0,0,1-.57-.14c-.68.27.87.79.09,1-2.24-.2-.51-.35-2.41-.48.35.5,2.56,1.29,2,1.66l.26,0c3.15.49-1.6.12-.15.55a12.85,12.85,0,0,0-1.39-.25c-.55.23.69.72,1.62,1.32l-.81-.17c-.74.07-.48.41-.87.55a8.51,8.51,0,0,0,1.83.37c-4.69-.09,2.32,1.5-1.61,1.45a1.57,1.57,0,0,0-.69-.2l.67.56a13.62,13.62,0,0,0,1.92.13c.81.19,1.42.41,1.4.52a10.57,10.57,0,0,0-3-.37c.42.05.88.16,1.31.22-2.48-.15,2.75.46,1.06.53l-.72-.13c.35.18,1.28.44,1.05.54a19.71,19.71,0,0,1-2-.46c.07.19,3,.84,1.34.75-.43-.15-.42-.26-.84-.41-1.89-.12-1.42,0-1.74.06h0l-.89.17h.51c4.09.9.68.59,3.34,1.34a13.87,13.87,0,0,0-3.27-.62,7,7,0,0,1-1.58-.09c1.42.38-1.18,0,.9.6a5.5,5.5,0,0,1-1.52-.13c.42.26,1,.12,1.73.26,1.93.63-2.51.27.12,1.15,1,.55,3,1,3.89,1.46a8.8,8.8,0,0,1-2.08-.46c-.88,0-.75.19-.12.48a11.84,11.84,0,0,0-1.59-.23c.13.16,2.08.47,1.2.5-.63-.15-1.65-.37-2.29-.56.51.26,1.55.61,2,.88a12.57,12.57,0,0,1-2.15-.56,5.53,5.53,0,0,0,2.4,1l.59,0a7.08,7.08,0,0,1-1.65-.32c-1.22-.38.59-.13,1.17,0l.35.19c3.4.49-.46-.58-.22-.79l2.44.55-2-.62a10.59,10.59,0,0,1,2.37.46c1.24,0-.85-.31.53-.22a1.82,1.82,0,0,1,.43.08l-.7-.3c.51.13,1.74.28,1.36.32,1.48-.06-1.75-.82.13-.61l.15.06c-.75-.58-1.8-.36-3.86-1l4.49.56L77,121.83c.07,0,.22-.1.94,0a17.2,17.2,0,0,0-1.94-.4c1.68.07-.67-.71,2.21-.28-1.36-.3-1.09,0-2-.36,3.11.46-.49-.35,1-.3,1.59.32.72.37,2.18.41-2.69-.57.65-.28.16-.54-2.15-.35-.84-.5-1.52-.89.72.13,1.27-.33,2.09-.47l.36.07c-2.17-.39-1.72-.59-2.14-.85a13.87,13.87,0,0,1,2.38.51l0-.18a3.76,3.76,0,0,1-1.28-.42l1.62.3c0-.26-1.84-.78-.7-.93-1.52-.25-4.27-.39-5.24-.87a19,19,0,0,1,2.56.45c-.1-.05-.67-.2-.31-.21l1.36.34c.63,0-1.14-.25-1-.34,1.17.18.85,0,1.78.19.11.05-.5,0,0,.14a5.43,5.43,0,0,1,1.84-.07,6.78,6.78,0,0,1-1.72-.35c0-.25,1.43.13,2.05.07-.81-.17.06-.21-1.69-.46a6.25,6.25,0,0,1,1.31.07c-.75-.24-.13-.62-2-.74h-.13l-.07,0h0c-1.69-.65,1.11-.71.42-1.22l.59.08c-.64-.34-.32-.6-1.56-.94a6.11,6.11,0,0,1,1.79.1c-.42-.25-1.07-.35-.07-.5,1,.33.92.06.73.29.54-.17,1.48-.11-.09-.57,1.49.28,1.92.06,1.48-.12l-1.1,0c-.2-.15,0-.25.09-.35l2,.31c2.47-.2-4-1.41.09-1.29-1.37-.3-1,.15-2.62-.17.3-.19,3.17-.09,3.19-.16,1.14-.19-2.86-.64-2.07-.88a12.48,12.48,0,0,1-3.24-.54,10.89,10.89,0,0,1,3.55.27c0,.06-.18.06-.42,0a2.77,2.77,0,0,0,1.32.24l-.7-.11c.73,0,.7-.36,1.85-.15a2.44,2.44,0,0,0-1.54-.12c1.06-.18.09-.46.81-.69a5.94,5.94,0,0,1-1.22-.09c.93-.35-1.32-.34-1.6-.68,1.1-.05,2.57.34,1.7-.06a7.56,7.56,0,0,1,2.45.3c-1.34-.43,1-.43,1.22-.56l.55.2c-.33-.12-.31-.19-.3-.27l-1.42-.06a1.58,1.58,0,0,1,.86-.07c-.92-.19-2.37-.18-3.62-.48.73,0-.74-.43,1.15-.28-.68.3,1.89.15,2.16.49q-.33-.12.06-.21a1.7,1.7,0,0,1,.49.08c1.72-.18-2.11-.37-2-.73,1.06.15,2,.12,1.8,0a8.4,8.4,0,0,1-2.57-.32c.85-.15-.59-.31-.48-.42l-.41.1c-1-.15-.9-.25-1.22-.44.83.06.56.2.93.17-1.85-.35,2-.21.74-.58.73,0,2,.18,2.49.12-1.35-.4,1.48-.17.37-.57a6.75,6.75,0,0,1-2.46-.33l1,.58-2-.5c0,.14.88.39.62.45a6.26,6.26,0,0,0-2-.25c2.15,0-1.21-.5.25-.59l3.53.32c1.6-.21-1.76-.77-.84-1.14l-.62.09c-1.4-.18-.18-.29-.73-.49a16.62,16.62,0,0,0,2.35.06c-.87-.06.11-.32-2.24-.55l1.57-.08c.66-.31-3.33-.68-2.9-1a20.53,20.53,0,0,1,3,.42c0-.12.25-.21-.57-.27.75,0-1.56-.44-.43-.46-.52-.09-1.75-.2-1.65-.32s.59,0,.59,0a9.71,9.71,0,0,0-2.1-.24c3.71-.09-.2-1,3-1.09a2.32,2.32,0,0,1-.81-.85c.36,0,.59,0,.47.08,1.12-.25-3.38-.41-2.13-.69,1.92-.06,1,.26,1.75.19,3.89.19-.51-.47,1.78-.57l.23.07c1.33-.11-1.45-.54-1.15-.83,0,0,.34,0,.59,0A7.42,7.42,0,0,1,80.47,96a13.08,13.08,0,0,0,2.35.2c-.21-.14-2.49-.09-2.91-.37a25.4,25.4,0,0,1,3.23-.13l.08.25c2.14,0-.06-.33.32-.44l.93.07c-.29-.4-2.64-.52-2.45-.91h-.71c-2.33-.33,1.32-.12-.41-.42l2.37,0a19.72,19.72,0,0,1-2.69-.89,26.85,26.85,0,0,1,3.66.8c0-.14-.15-.5-1.32-.62.23.06.81.16.44.2-1.85-.25-2.76-.52-2.7-.8,4.58.22,1.19-.7,4.75-.79-1.68-.57.75-1,.5-1.61-3.58.12-.1-.18-3.77-.24-.23-.14-.16-.19.07-.2l2.2-.36c1.07-.08.81.15,1.63.16.29-.3,1.56-.1,2.54-.28-1.31,0-1.88-.15-1.37-.31l-1.7.21c-1.94-.47,3.09-.31,1.17-.78l1.15.16c-.67-.24,0-.83-2.9-1.09a7.17,7.17,0,0,1,1.69,0c.44-.53-3.13-1.21-1.31-1.6l.89,0c-.25-.1-1.68-.18-.78-.3a4.69,4.69,0,0,0,1,0c-.31,0-1.57-.27-1-.4l1,.12c1.17-.51-2.46-.8-3.07-1.23,2.64,0,3.51-.4,3.93-.61h.38c.32-.61-2.2-1-3.25-1.56,2.87-.38,1.19-1.18,2.79-1.77a9.13,9.13,0,0,1-2.32-.07c.53-.14-1.84-.32.58-.35l0,0c2.37-.14,1.74-.4,1.8-.61l-3.17,0c4.59-.65-1.74-1.38,2.38-1.79-.79-.11-.79-.27-1.59-.38l1.7,0c.43-.38.63-.57.22-1l1.21,0c.11-.27-4.9-.15-5-.38l2.53-.17c0-.44,2.15-1-.17-1.32a5.36,5.36,0,0,1,1.21,0c.06-.21,1.68-.89-1.79-.66,2.26-.11.19-.47-.81-.66l1.67,0c-2.15-.1-2.73-.07-3.33-.32.21-.08,1.33-.13.91,0,.86-.27-1.59-.09-.72-.4l1.07,0c.12-.23-.45-.19-1.7-.24-.68-.11.4-.46,1.91-.57-.92,0-2.16,0-1.73-.2a5.35,5.35,0,0,1,1.1,0c1.12-.45-2-.45-.35-.81a9.49,9.49,0,0,0,1-.11c0,.31-.1.56-.22.54a25.31,25.31,0,0,1,3.93-.28c-1.17-.13-3.71-.32-3-.6l.53-.06h.18c.15-.06,0-.11-.26-.14.25-.09.43-.15.45-.22,1.27-.11.66-.33.72-.46a18.66,18.66,0,0,0-2.8.19.27.27,0,0,1,.27.08.4.4,0,0,0,.18,0h-.15a1,1,0,0,1,.14.3C82.77,70,82,70,83,69.76H80.24c2.33-.32,3.58-.73,5-.87-1-.31-.68-.84-3.85-.84-.42-.08.89-.19,1.39-.27a3,3,0,0,0,.73.12c-.82-.16-.36-.61-2.57-.49,1-.34,2.05,0,1.66-.34h.68c3.46-1-5.73-.7-1.28-1.87a3.48,3.48,0,0,1-.76.16c1.91-1.08-2-1.68,1-2.87.61-.32-.8-.21-1.89-.26l1.8-.23L80.1,62c-1.56-.22,4.36-1.11,1.43-1.29l-1.21.19c.21-.19-.77-.45.63-.58-.22,0-1.27.08-.64-.05l.94-.11-1.66-.24c.65-.4,3.74-.36,3.88-.86a13.77,13.77,0,0,0-3.42,0,3.91,3.91,0,0,1-1.51.36l-.51-.1a43.29,43.29,0,0,0-7.53,1.1l1.72.07-1.33.23-.11-.21c-1.26.27-.13.22.65.22a13,13,0,0,0-1.47.28l2.68,0a17.31,17.31,0,0,0-2.75.37c1.25,0,2.42-.39,3.26-.28-1.25.27-2.29.34-1.19.37a7.74,7.74,0,0,1-1.5.1c.88,0,.4.3,1.89.21-1.55.3.45.41-2.18.67a9.5,9.5,0,0,1,2.21.12c-3.17.11-.14.48-3.52.76,2.85-.12,1.32.46,2.92.59-.22,0-.68,0-.54,0a7.27,7.27,0,0,1-1.6.47,31,31,0,0,1,4.36,0c-2.24.42-2.76.14-4.92.41,1.89-.19,1.92.16,3.49,0A18.13,18.13,0,0,1,70,65c2.93-.24.51.1,2.32.06-1.42.35-2.74.3-1.82.47A7.12,7.12,0,0,1,68.52,65.64ZM74,71h0l-.11-.11Zm.06.49a.23.23,0,0,0,0-.22,4.17,4.17,0,0,1,1.15,0A5.53,5.53,0,0,0,74.09,71.51Zm11.59-1.79c.25.06-.08.11-.43.14a.86.86,0,0,0-.21-.13h-.21Z"/><path class="cls-1" d="M83.46,69.71l-.12,0-.38.07h.53Z"/><path class="cls-1" d="M79.22,115.76H79Z"/><polygon class="cls-1" points="71.15 78.38 71.58 78.36 71.2 78.33 71.15 78.38"/><path class="cls-1" d="M73.09,117.63l-.43,0A2.54,2.54,0,0,0,73.09,117.63Z"/><path class="cls-1" d="M72.53,118.73l-.62.07A2.48,2.48,0,0,0,72.53,118.73Z"/><path class="cls-1" d="M71.56,119.49l.71.13h0Z"/><path class="cls-1" d="M71.45,105.13a.14.14,0,0,0-.07,0C71.06,105,71.18,105,71.45,105.13Z"/><path class="cls-1" d="M74.91,109.78c-.3-.08-.59-.16-.77-.23S74,109.66,74.91,109.78Z"/><path class="cls-1" d="M69.83,100.29h0s0,0,0,0Z"/><path class="cls-1" d="M74.19,109.35c-.34,0-.28.11,0,.2S74.44,109.45,74.19,109.35Z"/><path class="cls-1" d="M70.14,123.19l-.08,0,.27,0Z"/><path class="cls-1" d="M70.33,123.27l.19.09S70.51,123.31,70.33,123.27Z"/><path class="cls-1" d="M70.92,123.53l-.4-.17S70.45,123.42,70.92,123.53Z"/><path class="cls-1" d="M71.12,122.16l-.6-.12Z"/><path class="cls-1" d="M71,121.77c-.16.06-1.33,0-1,.17l.48.1C69.63,121.82,72,122,71,121.77Z"/><path class="cls-1" d="M78.73,121.55l-.54.22a4.77,4.77,0,0,1,1.66.3C81.83,122,78.4,121.91,78.73,121.55Z"/><path class="cls-1" d="M79.81,120.74c.27.22.94.15,1.3.22A2.58,2.58,0,0,0,79.81,120.74Z"/><path class="cls-1" d="M80.86,113.77l1.52.21C82.18,113.83,81.79,113.91,80.86,113.77Z"/><polygon class="cls-1" points="73.16 111.44 72.2 111.44 73.58 111.67 73.16 111.44"/><polygon class="cls-1" points="84.1 112 84.31 112.09 83.78 111.8 84.1 112"/><path class="cls-1" d="M84.7,100l-1.89-.09C83.15,100,85.27,100.2,84.7,100Z"/><path class="cls-1" d="M83.08,94.77c.94,0,1.56-.13.63-.26C83.58,94.61,82.84,94.7,83.08,94.77Z"/><polygon class="cls-1" points="86.35 79.33 86.98 79.42 86.45 79.23 86.35 79.33"/><path class="cls-1" d="M174.31,136.48c-.27-.45-1.13-1.26-1.19-.87l1.2,1.59Z"/><path class="cls-1" d="M170.24,135.28a9.3,9.3,0,0,0,2.69,3.63c-1.06-1.64-.44-1.12-1.72-3,.06-.38.83.08,1.3.65-.27-.45.66,0-.08-1-1.36-.83-1.78-.52-1.3.78A4.06,4.06,0,0,1,170.24,135.28Z"/><path class="cls-1" d="M145.79,154.34l.3,0A.37.37,0,0,0,145.79,154.34Z"/><path class="cls-1" d="M131.21,166.74c.07-.14,0-.32-.14-.46C131.06,166.47,131.07,166.64,131.21,166.74Z"/><path class="cls-1" d="M127.34,167.41a1.57,1.57,0,0,0,.23,0C127.39,167.29,127.27,167.27,127.34,167.41Z"/><path class="cls-1" d="M145.79,154.34l-.8-.1C145.41,154.73,145.51,154.4,145.79,154.34Z"/><path class="cls-1" d="M170.47,141.69a1.38,1.38,0,0,0-.16-.57,1.63,1.63,0,0,1-.05.33Z"/><path class="cls-1" d="M150.77,147.36l.11-.11c-.12-.2-.28-.43-.46-.68Z"/><path class="cls-1" d="M155.24,142.67c-.16.05,1,1.3,1.44,1.88a2.31,2.31,0,0,1-.57-1.06C155.89,143.26,155.61,143,155.24,142.67Z"/><path class="cls-1" d="M164.7,137.74l0-.29C164.69,137.53,164.68,137.64,164.7,137.74Z"/><path class="cls-1" d="M147.17,150.29a4.11,4.11,0,0,0-.46-.4A4.25,4.25,0,0,0,147.17,150.29Z"/><path class="cls-1" d="M60.65,175.93l.3,0C60.79,175.91,60.67,175.88,60.65,175.93Z"/><path class="cls-1" d="M70.15,170l.07.12.93.17Z"/><path class="cls-1" d="M121.53,170h0C121.55,169.72,121.51,169.81,121.53,170Z"/><path class="cls-1" d="M82.73,208.71c1.49.66.6,2.1,2.43,2.66C84.65,211,84,208.88,82.73,208.71Z"/><path class="cls-1" d="M170.19,141.64a.58.58,0,0,1-.18.2C170.14,141.79,170.19,141.73,170.19,141.64Z"/><path class="cls-1" d="M85.16,211.37h0l.18.05Z"/><path class="cls-1" d="M112.27,180.2a5.63,5.63,0,0,0,.61.44A2.39,2.39,0,0,0,112.27,180.2Z"/><path class="cls-1" d="M121.34,174.86H121A.5.5,0,0,0,121.34,174.86Z"/><path class="cls-1" d="M110.07,185.59c-.19,0-.39-.13-.37.16a.77.77,0,0,0,.19.11C109.77,185.65,109.77,185.51,110.07,185.59Z"/><path class="cls-1" d="M106.07,189.43l.3.17.07-.19Z"/><path class="cls-1" d="M58.35,192.45a13.42,13.42,0,0,1,1.54.05C58.7,192.35,58.44,191.47,58.35,192.45Z"/><path class="cls-1" d="M169.81,141c.27.33.38.52.38.64a.44.44,0,0,0,.07-.19A2.36,2.36,0,0,0,169.81,141Z"/><path class="cls-1" d="M119.09,195.38l-.81.42A1.67,1.67,0,0,0,119.09,195.38Z"/><path class="cls-1" d="M52.77,237.58l-.38,0C52.46,237.7,52.58,237.7,52.77,237.58Z"/><path class="cls-1" d="M116.56,197.79a3.25,3.25,0,0,0-1.16-.51,2.77,2.77,0,0,0,.22.39Z"/><path class="cls-1" d="M59.91,192.5h0Z"/><path class="cls-1" d="M57.08,186.1c-.2.8,2.06.79,3.28,1.21.43,1.09-1.69.14-2.87.25.46.72,2.36,1.58,2.19,2a2.05,2.05,0,0,1-.94-.16c1.6,1-.29,1.92,1.73,3.1a2.57,2.57,0,0,1-.56,0,21.59,21.59,0,0,1,3,.49c0,.37,1.24.95-.21.81.09-.22-.48-.36-.9-.55l.54.51c-2.12-.07-.6-.67-2.12-1,.52.88,2,2.1,1.34,2.55-2-.29-.4-1.48-2.34-1.07l1-.73c-3.29,0,.33-.5-3.17-.56-.81,1.05.75,1.51-.06,2.55,1.05.49,1.66.25,2.71.74,1.65,2.07-5.29.26-2.88,2,1.26.59,3.76,1.25,2.24,1.83l-2.19-.77c-.46,1.08,3.1,1.33,1.34,2.19-.84-.4-.56-1-.87-.93-1.94.38,1.17.81,1,1.4l-2-.31c.06,1.26,1.21,2.9,1.28,4.3a3.09,3.09,0,0,0-1.82-.39c.63,1.89-1,3.51-2.58,4.85l1.58,1c-.06.14-.84.09-1.14-.14-.79.48,1.08.28,1.69.74,0,.38-1.1.24-1.56-.1a8.51,8.51,0,0,1,.85,1.22,10.17,10.17,0,0,1,.38,2,4,4,0,0,1-1.46,3.53l-.46-.32c-.57.82.28,1.14,1,1.37s1.41.38.36,1.23l-.29-.15a24.78,24.78,0,0,0-1.36,4.72,13.75,13.75,0,0,1-3,5.54c1.12-.63,1.12-.26.89.36s-.72,1.48-.52,1.67a5.46,5.46,0,0,0,2.16-1.32c-.87,1.35-1.35,2.1-1.84,2.77a4.15,4.15,0,0,0-.84,2.25c.15.35,2.41-1.61,2.86-1.55L51,236.86l1.83-1.13c-.48.67-1,1.31-1.37,2l1-.06c-.17-.21,0-.9.46-1.29,1.45-.2,1.41,2.08.9,2.9a14.41,14.41,0,0,0,1.61-.18,14,14,0,0,0,1.57-.3,3.17,3.17,0,0,1-1.56,1.06c1.15-.59.93-.17.7.3s-.48,1,.57.33c.06-.42.66-1,.89-1.33a1,1,0,0,0,.8,1.11,2.65,2.65,0,0,0,1.72-.1l-.76,1.27a3.92,3.92,0,0,0,1.39.13,12.78,12.78,0,0,0,1.57-.25c1.09-.31,2.19-.7,3.25-1-.62-.51.15-3,.72-3.43L66,239c.63-1.47-.41-.67.64-2.56.62,0,.06,2.38-.53,3.24l1.07-1.07a14.93,14.93,0,0,1-.51,1.94c.31-.75.64-.32,1.06,0s.92.37,1.29-.95l0,.64c2.32-.9,3.33-2.31,5.11-3.52-.32-1.84.44-1.91.53-3.67,1.24-.23,3.15-.05,4.57-1.5.54-1.61-.49-1.48-.64-2.7.92,1.24,2.22-.19,2.19,1.36l1-1.17a3.36,3.36,0,0,0,.41-.71,10.13,10.13,0,0,0,.54-2.11c-.57-.33-.91-.38-1.19-.83,0-.4,1,0,1.43.54l0,.17c-.2-3,6.3.19,5.19-3.18l0,.17v-2.3c.71-.31.48,1.14,1.53,1.45-.53-3,2.21-1.59,2-3.8,3.92,2.53,2.58-2.9,5.64-1.82l-.8-.72c-.45-1,.75.13,1.12.11-.6-.57-1-.41-1.19-1,1.45-3.15,5.89-3.46,8.94-5,1.07-.63-3.32-4.47-.46-3.68l1.06,1.74c.12-3.41,3.66-3.38,4-6.49.22.43.62.86.45,1,1.36.69,1.4-1.24.59-2.09.36-.16.8.71,1.38,1,1,.27-.36-2.2.83-1.35a.77.77,0,0,1,.23.58c-.25-.73,1.23-.93-.15-1.92,1.2,0,.73-1.71,1.93-1.5-1-1.66,1.72-.41,0-2.41,1.82,2,2.64.5,2.17-.81.43.72.94.27,1.57,1.25.44-.48.52-1.25-.52-2.18,3.1,1.53-.08-3.54,3.28-1a20.85,20.85,0,0,1,1.79-6c1.83,2-1.19,1.51.82,3.51.42-1.93-.5-4.27,1.12-4.92.56,0,.64,1,.86,1.45.41-1.93,2.46-2,2.49-4.07a1.37,1.37,0,0,1,.28.74c.15-.26.76-.18-.11-1l0,.43c-1.57-1-1.75-3.48-2.37-4.2,2.08,2.89,1.65-.35,4.17,3.41a2.49,2.49,0,0,0-.85-1.45c.36,0,.76.26,1.2,1.14.28-1.2-.89-1.89-.19-2.51A10.49,10.49,0,0,1,132,180c-.46-1.17-.92-2.33,0-2.51.21.29.6.57.43.72.85-1.06-.47-3.83,1.37-4,1.47,2.18,1,.27,2.56,1.84l.11-1-1-.56c.53-.46-.15-2.06.8-2l.26,1,.65-1.21-1.12-.1c-.29-1.33-2-2-.91-2.19,0,.29.52-.47,1.7.24h0c-.24-.75-.5-1.54.25-1.49.6.42,1.64,1.86,2,2.15-1.05-1.59.82-1.51-.24-3.25a6.62,6.62,0,0,0,1.22,1.44l-.84-1.3c.57.13.77.27,1.38,1,.89-.47-2.19-1.84-.51-1.75,0,.15.21.28.23.58,1.28-.34,1-2.24,2.24-2.44,1.79,1.42-.29,1,1.28,2.17.83-1.35.44-4.15,1.88-4.79h-.37c-2-2.44,1.89.37,1.39-1.23a4,4,0,0,0,.84,1.15c1.09-.33,1-2,1.39-3.79l.43.72c.94.12,1.43-.78,2.16-1-.43-.72-.07-.88-1-1.59,4.66,2,1-4.44,5-2.85-.14.15.13.86.25.75l.58-1.59c-1-.92-.72-.47-1.7-1-.43-.73-.56-1.48-.29-1.74.14,1.13,1.54,1.61,2.29,2-.33-.27-.58-.68-.9-1,2.28,1.24-1.83-2.11.1-1.66l.46.57c0-.55-.36-1.5.1-1.65,1.24,1,.2.84,1.1,1.81.37-.49-1.23-3,.27-2.25.12.5-.14.76,0,1.26,1.73,1,1.45.56,2,.46h-.06l1.34-.09-.54-.19c-2.34-3.55.59-1.63-.55-4.32,1.06,2.57.91,1.2,2.11,2.57.54.18,1.22.31,1.49.76-.66-1.4,1.38.28.4-1.75.43.4.42-.32,1.35.82.14-.77-.81-.63-1.28-1.2-.67-2.12,3.34.17,2.46-2.78.09-1.65-1.11-3.23-1-4.72a2.85,2.85,0,0,1,1.25,1.76c1,.2,1.26-.23,1.22-1.11a3.24,3.24,0,0,0,1.23,1c.23-.43-1.25-1.76-.21-1.55a16.55,16.55,0,0,1,1.29,2c0-.77-.35-1.93-.3-2.7.81.63.82,1.35,1.14,2a3.27,3.27,0,0,0-.43-3.1l-.69-.14c.11-.22,1,.92,1.12,1.25.49,1.29-1,.14-1.38-.27l0-.54c-2.67-2.2-.79,1.51-1.51,1.92l-1.48-2,.83,2.07c-.58-.34-1.63-1.27-1.6-1.82-1.27-.49.24,1-1.07.35a.58.58,0,0,1-.28-.33l.1.93c-.28-.46-1.28-1.21-.78-1.19-1.73-.34.11,2.49-1.47,1.38l-.05-.17c-.44,1.59,1.17,1.42,1.89,3.71l-3.64-2.78,1.17,1.42c-.16.05-.46.15-.93-.42.48,1.29.62.52,1.21,1.59-1.66-.72-.86,1.9-3-.11.78,1.19,1.23.32,1.36,1.54-2.32-2.13-.26,1-1.71.38-1-1.31,0-1.1-1.41-1.71,1.61,2.25-1.31.43-1.34,1.18,1.48,1.59-.22,1.47-.38,2.62-.46-.57-2.06.31-3.21.32l-.23-.28c1.4,1.7.48,2,.34,2.77a4.46,4.46,0,0,1-1.33-2.09l-.42.42a1.76,1.76,0,0,1,.4,1.45l-1-1.3c-.51.62.19,2.51-1.31,2.42,1,1.15,3.54,2.53,3.47,4-.6-.58-1.61-1.58-1.64-2,0,.14.24.73-.14.6l-.65-1.31c-.76-.12.63,1,.27,1.18-.81-.87-.78-.43-1.39-1.14,0-.15.57.13.35-.31a2.65,2.65,0,0,1-2-.55c.49.46,1.1,1.15,1,1.47-.52.61-1.18-.84-1.94-1,.43.72-.52.46.69,1.75-.17.15-.77-.42-1.17-.7.24.84-1.23,1.48.4,2.52l.17,0s0,.06,0,.1h0c.25,2.2-2.71,1.2-3.15,2.67l-.41-.43c-.1,1-1,1.51-.53,2.82-.17.16-1.15-.4-1.56-1-.14.75.27,1.27-1,1.17-.27-1.17-.78-.51-.07-1-.92.18-1.7-.38-1.2,1.37-.84-1.3-1.75-1-1.71-.38l1.15.4a1.37,1.37,0,0,1-.87.78l-1.23-1.59c-2.85-.64.74,5-2.95,2.91.65,1.31,1.31.11,2.16,1.55-.72.32-3.26-1.22-3.43-1.06-1.5-.1,1.32,2.76,0,2.95.59.42,2,1.71,1.88,2.74-.72.33-2.72-1.53-2.78-2.26.09-.17.31-.07.47.11a1.07,1.07,0,0,0-.73-1.14l.42.58c-.77-.27-1.46.49-2.09-.52.06.88.63,1,1.19,1-1.4-.09-1.1,1-2.29,1.18.38.18,1.06.68,1,.79-1.65.35.47,1.41,0,2.31-1.15-.4-1.64-2-1.73-.67-.94-.12-1.39-1.28-1.62-1.87.3,1.61-1.83.5-2.38.67l0-.74a.8.8,0,0,1-.32.76l1.18.84c-.37,0-.55.17-1-.26.44.87,1.79,1.56,2.26,2.88-.76-.27-.27,1.33-1.67,0,1.28-.33-1.4-1.28-.9-2.18,0,.29-.16.45-.53.46a.65.65,0,0,1-.26-.44c-2-.46,1.1,1.9.24,2.66-.63-.87-1.59-1.28-1.57-1,.35-.31,1.39,1.13,1.64,2-1.1-.09-.15,1-.5,1.2l.59,0c.63.87.27,1,.13,1.62-.61-.57-.06-.73-.45-.87.88,1.75-2.27-.51-2,.95-.77-.27-1.41-1.42-2-1.55.31,1.61-1.71-.39-1.6,1.08,1.18.85,1,.56,1.46,2l.42-1.79.72,2.19c.35-.31.09-1.33.46-1.35.47,1.17.26.88,1.24,1.59-2-1.12,0,1.77-1.59,1.23l-2.43-2.58c-1.89-.38-.16,2.68-1.82,3l.76.13c.83,1.15-.51.75-.45,1.49a5.74,5.74,0,0,0-2-1.39c.63.61-.81.66.73,2.47l-1.55-.69c-1.28.34,1.38,3.36.29,3.83-.65-1.16-1.59-1.42-1.69-2.6-.28.25-.67.32-.1.92-.67-.38.35,1.87-.67,1.29.24.49,1.06,1.42.69,1.64a2.05,2.05,0,0,1-.4-.43c.4.43.07,1,1.24,1.73-3.38-1.88-2.13,2.41-5,.8a8.8,8.8,0,0,1-1.23,2.37c-.21-.29-.41-.43-.22-.43-1.5-.1,1.89,2.89.21,2.8-1.75-1-.27-1.17-1-1.44-2.81-2.71-.64,1.35-2.78.24l0-.3c-1.35-.55,0,2.07-.93,2.54a2.35,2.35,0,0,0-.4-.43,5.38,5.38,0,0,1,.13,4.29c-.84-1.3-.25-.87-1.45-1.87-.15.45,1.81,1.71,1.51,2.61a8.9,8.9,0,0,1-2.92-1.67l.51-.61c-1.77-1.27-.69.76-1.25.78l-.6-.72c-.67,1.06.94,2.78-.11,3.55l.58.42c1.1,2.18-1.34-.54-.65,1.21l-1.79-1.56a12.88,12.88,0,0,1,.09,3.69A12.85,12.85,0,0,1,93,201a1.73,1.73,0,0,0-.39,2.23c0-.3-.25-.88.13-.75Q94,205.08,93,206c-3-3.44-2.55.83-5.5-1.29,0,2.37-2.86,1.73-4,3.24,3,2.12-.33.46,2.28,3-.16.47-.32.55-.51.4l-2.49-.65c-1-.55-.26-.88-.85-1.45-.9.47-1.37-.84-2.51-1.1,1,.86,1,1.59.3,1.62l1.74.68c.36,2.35-3-1.42-2.64.93l-.48-1.13c0,1-1.9,1.77-.36,4.38-.39-.22-1.2-.83-1.16-1.24-1.52.85-.54,4.86-2.74,4.45l-.53-.73c0,.4.77,1.59-.14,1.21-.24-.28-.53-.73-.67-.67a4.71,4.71,0,0,1,.19,1,.9.9,0,0,1,0,.48.33.33,0,0,1-.12.14s-.07,0-.13,0a4.43,4.43,0,0,1-.29-.42l-.22-.49c-.3.09-.31,0-.36,0s0,.08,0,.18.22.55.38,1a5.35,5.35,0,0,1,.46,2.59,27.83,27.83,0,0,0-1.29-2.62c-.3-.55-.45-.85-.54-1.06l-.1-.42c-.12-.12,0,.55-.16,1.58a11.85,11.85,0,0,1-.79,3.31c0-1.91-.08-2.26-.26-2.36s-.47,0-.08-1.28a33.31,33.31,0,0,1-1.7,3.84c.12-.43-.32.35-.6.74s-.34.36.67-1.65v.07c1.82-3.94,1.25-2.89,1.18-3l-3.2,5.3a14.58,14.58,0,0,0,1.32-3c0-.24-.42.1-.9.41a7.68,7.68,0,0,1-.68.41.72.72,0,0,1-.24.08s0-.05,0-.11a18.26,18.26,0,0,1,2.12-2.45c-1.06,1-1,.84-2,1.71l2.27-2.16c.49-.62.77-.91.67-.95l-.2.06,1.52-1.15c.07-.07-1.46,1.07-3,2.12s-3.08,2-3.09,1.83q1.56-1.1,3.12-2.13c0-.22.73-.81,1.08-1.11s.34-.37-.89-.16c.41-.13,1.22-.38,1.33-.38s.55-.34.55-.41-.46-.07-2.32.23c1.21-.2,1.28-.28,1-.38a11.47,11.47,0,0,1-1.54-.51l1.68.14c-2.11-.35-2.67-.49-3.13-1.14.24-.08,1.33.19.88.25.46,0,.13-.39-.23-.6s-.69-.51-.16-.83l1,.55c.29-.69-.28-.76-1.4-1.43-.55-.6.72-1.26,2.22-1-.88-.3-2-1-1.48-1.29a2,2,0,0,1,1,.42c1.38-1-1.5-2.21.29-2.68a3,3,0,0,0,1,.07c-.25.95-.51,1.7-.61,1.6,1.5.34,1.94-.38,3.88.7-1-.88-3.23-2.48-2.36-3.08a3.69,3.69,0,0,1,.55,0l.15.11c.19-.14.08-.33-.14-.53.3-.19.52-.3.59-.53,1.27.19.87-.74,1-1.11-1.65-.33-1.28-.77-2.74-.59.13,0,.18.11.19.38,0,.07,0,.14.14.2l-.14,0c0,.26,0,.6-.1,1-.77-.49-1.41-1-.4-1.19-1-.42-2.06-.88-2.54-1.11,2.41,0,3.87-.78,5.32-.62-.67-1.38,0-2.91-3-4.3-.33-.42,1-.2,1.48-.22.27.26.18.48.6.67-.66-.83.1-2-2-2.65,1.15-.64,1.9.88,1.78-.35l.63.29c3.94-1.59-4.78-4.82.16-6.46a1.47,1.47,0,0,1-.82.15c2.54-2.51-.7-6.3,3-8.57.78-.7-.59-1-1.56-1.73l1.81.15-1.9-1.22c-1.29-1.47,4.75-1.3,2.17-3.33l-1.24,0c.32-.5-.4-1.85,1-1.52-.21-.09-1.22-.39-.55-.5l.93.15L71.23,173c.86-.93,3.68.79,4.13-.7-.27-.63-2.45-2.07-3.11-2-.09.22-.69.48-1.63.34l-.4-.59c-2.73-.56-5.49-1.42-7.63-.49l1.54,1.16-1.38.05,0-.75c-1.33.2-.26.66.45,1.08a3.58,3.58,0,0,0-1.53.12l2.48,1.31c-1.1-.09-2.07-.76-2.76-.28,1.15.61,2.48,0,3.16.83-1.32.2-2.32-.1-1.34.58a2.35,2.35,0,0,1-1.43-.49c.78.59.16,1.22,1.58,1.7-1.62.16.15,1.54-2.45,1,.6.25,1.91,1.13,1.94,1.55-3-1.29-.45,1.47-3.76.67,2.71,1.05.9,2.17,2.27,3.42-.21-.1-.64-.29-.49-.35-.33.5-1.2.5-1.79.75,2.29.5,2.67,1.43,4,2.16-2.35.24-2.64-.92-4.82-1.11,1.88.32,1.66,1.5,3.26,1.57a6.43,6.43,0,0,1-2.72.2c2.87.64.4.56,2.09,1.32-1.56.46-2.74-.33-2,.64A2.32,2.32,0,0,1,57.08,186.1Zm1.06,20h0v-.41C58.11,205.79,58.12,205.91,58.14,206.13Zm-.32,1.6a2.09,2.09,0,0,0,.22-.68c.58.07,1.15.26,1.08.42C58.76,207.29,58.35,207.6,57.82,207.73Zm12.16-.9c.18.31-.16.33-.51.29a1.67,1.67,0,0,0-.1-.5l-.19-.07A6.54,6.54,0,0,1,70,206.83Z"/><path class="cls-1" d="M67.92,205.9s-.09-.08-.1-.13a3.27,3.27,0,0,0-.4.07l.5.21Z"/><path class="cls-1" d="M146.14,154.37h0a1.24,1.24,0,0,1,.22.12Z"/><polygon class="cls-1" points="50.63 237.22 50.98 236.86 50.59 237.09 50.63 237.22"/><path class="cls-1" d="M156.7,152.3a1,1,0,0,0,.38.23A2,2,0,0,0,156.7,152.3Z"/><path class="cls-1" d="M159.79,149.87l.82.06A2.34,2.34,0,0,0,159.79,149.87Z"/><path class="cls-1" d="M162.55,148.4a6.62,6.62,0,0,0-.46-.56h0Z"/><path class="cls-1" d="M129.28,182.88a.25.25,0,0,0,0,.13C129.28,183.44,129.33,183.22,129.28,182.88Z"/><path class="cls-1" d="M136.87,170.19a4.85,4.85,0,0,1,.22.9C137.36,171,137.53,170.89,136.87,170.19Z"/><path class="cls-1" d="M119.18,195.33l0,0s0,0-.07.07Z"/><path class="cls-1" d="M136.59,171.52c.41.07.52-.13.5-.43C136.86,171.15,136.56,171.19,136.59,171.52Z"/><path class="cls-1" d="M172.52,139.94l.15,0a2,2,0,0,1-.17-.21Z"/><path class="cls-1" d="M172.5,139.69l0-.26C172.42,139.48,172.38,139.54,172.5,139.69Z"/><path class="cls-1" d="M172.43,138.89l0,.54C172.56,139.35,172.7,139.29,172.43,138.89Z"/><path class="cls-1" d="M169.1,142.13l.38.48A3,3,0,0,0,169.1,142.13Z"/><path class="cls-1" d="M168.34,143.1c.31-.1,1.43.44,1.45-.12l-.31-.37C170,143.4,167.83,142.16,168.34,143.1Z"/><path class="cls-1" d="M159.46,141.12l1.08-.35c-.58-.35-1.35-.82-1.13-1.25C157.14,139,160.61,140.39,159.46,141.12Z"/><path class="cls-1" d="M156.54,142.61c.18-.6-.66-.68-.9-1C155.8,142.31,155.85,142.47,156.54,142.61Z"/><path class="cls-1" d="M140.08,158.3l-1-1.15C138.91,157.6,139.47,157.59,140.08,158.3Z"/><polygon class="cls-1" points="142.41 167.04 143.36 167.45 142.53 166.3 142.41 167.04"/><polygon class="cls-1" points="133 160.91 132.99 160.62 132.86 161.51 133 160.91"/><path class="cls-1" d="M105.75,187.67l1.4,1.28C107.12,188.5,105.69,186.93,105.75,187.67Z"/><path class="cls-1" d="M95.15,200.44c-.78-.56-1.54-.68-1.1.19C94.4,200.47,95.18,200.75,95.15,200.44Z"/><path class="cls-1" d="M67.86,220.53l.74-1.05c-.22.29-.45.58-.69.86Z"/><path class="cls-1" d="M0,250c.23.54,1.25,1.15,1.54.4L.33,248.74Z"/><path class="cls-1" d="M6.11,248.23a4.66,4.66,0,0,0-2.67-3.85c.94,1.89.18,1.56,1.36,3.73-.3.75-1.33.66-1.83.11.23.53-1.08.66-.36,1.77,1.82.16,2.66-.8,2.49-2.63C5.62,247.41,5.86,248,6.11,248.23Z"/><path class="cls-1" d="M55.35,190.93l-.49.23A.89.89,0,0,0,55.35,190.93Z"/><path class="cls-1" d="M85.55,155.25a.53.53,0,0,0,0,.67C85.65,155.59,85.73,155.3,85.55,155.25Z"/><path class="cls-1" d="M92.3,150.5a4.62,4.62,0,0,0-.4.27C92.15,150.75,92.35,150.68,92.3,150.5Z"/><path class="cls-1" d="M55.35,190.93l1.26-.59C56.16,189.87,55.84,190.54,55.35,190.93Z"/><path class="cls-1" d="M8.8,237.09a1.57,1.57,0,0,0,0,.86,3.38,3.38,0,0,1,.23-.63A2.39,2.39,0,0,1,8.8,237.09Z"/><path class="cls-1" d="M43.79,208.07l-.23.3a5.52,5.52,0,0,0,.43.74Z"/><path class="cls-1" d="M34.22,220.67c.28-.24-1-1.38-1.46-1.95.42.59.52,1,.42,1.33A4.51,4.51,0,0,0,34.22,220.67Z"/><path class="cls-1" d="M16.36,238.54l-.09.49C16.28,238.9,16.35,238.7,16.36,238.54Z"/><path class="cls-1" d="M51.11,199.42a2.13,2.13,0,0,0,.56.27A1.39,1.39,0,0,0,51.11,199.42Z"/><path class="cls-1" d="M46.49,148.53a3,3,0,0,0,0-.3C46.34,148.4,46.29,148.52,46.49,148.53Z"/><path class="cls-1" d="M38.56,128.36l-.06.23c.26.1.52.2.79.28C39,128.71,38.8,128.54,38.56,128.36Z"/><path class="cls-1" d="M103.3,140.77s0,0-.07,0C103.13,141.21,103.24,141,103.3,140.77Z"/><path class="cls-1" d="M13.37,178.32c2.07.5-1.1,2.94,1.71,3.18C14.56,181.05,15.48,178.18,13.37,178.32Z"/><path class="cls-1" d="M9.22,236.91a3.92,3.92,0,0,1,.39-.52A1.25,1.25,0,0,0,9.22,236.91Z"/><path class="cls-1" d="M15.08,181.5v0h.28Z"/><path class="cls-1" d="M95.84,122.19a2.18,2.18,0,0,0,.71.39A1.54,1.54,0,0,0,95.84,122.19Z"/><path class="cls-1" d="M106.26,132.09l.57-.32A1.38,1.38,0,0,0,106.26,132.09Z"/><path class="cls-1" d="M86.86,131.82c-.35.1-.58,0-.82.43a.89.89,0,0,0,.24.09C86.28,132.05,86.39,131.83,86.86,131.82Z"/><path class="cls-1" d="M75.93,139.74c.13.06.26.08.4.13l.29-.32Z"/><path class="cls-1" d="M86.74,128.76a5.66,5.66,0,0,1-1.3-1C86.22,128.69,84.7,130,86.74,128.76Z"/><path class="cls-1" d="M9.54,237.67c-.28-.32-.37-.54-.32-.76a3.11,3.11,0,0,0-.2.41A.94.94,0,0,0,9.54,237.67Z"/><path class="cls-1" d="M94.27,142.89,92.37,144A9,9,0,0,0,94.27,142.89Z"/><path class="cls-1" d="M71.74,138.94l.24-.47A.43.43,0,0,0,71.74,138.94Z"/><path class="cls-1" d="M87.29,148a3.28,3.28,0,0,0-1.67-.24,1.8,1.8,0,0,0,0,.5Z"/><path class="cls-1" d="M85.43,127.74a0,0,0,0,1,0,0A0,0,0,0,0,85.43,127.74Z"/><path class="cls-1" d="M75.06,138.22c1.81-1-.23-2.36-.48-3.68,1.82-1.76,1.8.86,3.08,1.43,1-1.26,1.06-3.61,2.09-4.1.26.28.52.28.51.81.54-2.33,4.14-2.45,4.69-5.3a1.44,1.44,0,0,1,.48.36,9.34,9.34,0,0,1-1.75-2.51c.78-.48.79-2.06,1.81-1-.51.24-.26.78-.27,1.3l.53-1c1.78,1.38-.79,1.27,0,2.61,1.3-1.51,2.36-4.09,3.9-4.29,1.27,1.62-2.59,2.26,0,2.88l-2.32.42c3.07,2-1.29.48,1.77,2.7,2.84-.94,2.34-2.52,5.18-3.45,0-1.31-1-1.35-1-2.66,2.61-3.82,5.37,2.84,6.69-1,0-1.57-1-4,1.59-3.85l.49,2.37c2.58-1.21-.23-3.68,3.12-3.8,0,1-1.56,1.76-1,1.79,2.57.63.54-1.81,1.83-2.54l1.27,1.62c2.47-1.77,4.64-4.69,7.37-6.67.14.62,0,1.46,1,1.61a16.58,16.58,0,0,1,5.16-3.14l-8.46-10.23A44,44,0,0,1,106.4,103l.31,2.32c-.25.25-1,0-1-.56-1.54.7.78.81.79,1.82-.51.74-1.55.19-1.56-.58-.74,3-2.93,8-6.35,8.74l0-.77c-2.08,1.13.82,4.35-1.82,4.72l.06-.51c-4,3-6.76,7.94-11.34,8.54,1.21,2.34-4.28,2.5-2.15,5.29-3.27.58-3.1-.42-6.8,1.32-.89.57.3,2.71-.46,3.83l-1.24-1.38-.08,2.62-2.15-1.07L72,138.47a1.47,1.47,0,0,1,1.62.41c-.92,1.88-4.37,2-5,1.33l-2.5,4c-.39-.64,0-1.31.19-2.05-.67,3-1.56-1.24-2.18,1.49.5.14.57,1,.77,1.28a3.92,3.92,0,0,0-2.48.81,9.61,9.61,0,0,0-2.21,2.05l-.5-1.23a25.71,25.71,0,0,0-4,3.34,45.92,45.92,0,0,1-4.21,3.61c1.43-.31,2.5,1.64,1.73,2.47l-1.51-1.31c.14,1.39,1.37-.09,1.06,2-1.27.65-2.07-1.24-1.8-2.23L50,156c-.42-.42-.28-.91-.63-1.57.15,1.42-3.52.1-3.12,2.39l-.42-.42c-3.07,2.11-4.05,3.67-6.55,5.41.89,1.44-.31,1.78-.32,3.43-1.09.39-2.33.66-3.57,1a11.62,11.62,0,0,0-3.62,1.56c-1.17,1.73.29,1.51.09,2.81-.93-1.22-3.14.34-2.54-1.35A31.69,31.69,0,0,0,23,174.88c.7.32,1.28.29,1.32.88a1.37,1.37,0,0,1-2.07-.38l.09-.24c-1.4,2.2-4.33,2.49-7,2.87s-5.25.69-6.12,3l.11-.24L6.72,184c-1.67.59.4-1.52-1.18-1.75l-.34.54,7.13,12.89C14.65,192,18,193,20,189.89c4.66,2.49,8-5.24,12.56-4.7l-.74-.79c.24-1.38,1.28-.08,2-.25-.53-.65-1.37-.27-1.19-1.07,6-5.29,14.66-7.46,22-11.15,2.64-1.41-1.65-5.54,2.89-5.49l.21,2.24c3.68-5.31,10.25-6.8,13.95-11.81,0,.57.3,1.07-.18,1.39,1.84.48,3.82-2.57,3.16-3.54.83-.42.78.75,1.59.91,1.51,0,1.51-3.29,2.87-2.5.23.12,0,.58-.14.8.26-1,3.19-2,1.6-3,2.26-.63,3-3,5-3.27-.15-2.18,3.59-1.48,2.35-3.82,1.46,2.3,4.42-.5,4.79-2.36.1.94,1.48,0,1.71,1.21,1.26-1,2.14-2.24,1.09-3.2,4.29.87,3.17-5.6,7-3.25a99.59,99.59,0,0,1,8.77-10.53c1.53,2.24-3.56,3.08-1.69,5.22,1.86-2.46,2.58-4.87,4.26-6.74l-7.21-7.89a8.07,8.07,0,0,1-1.93,2.17c-1,.53-.47-1.23-.57-1.81a21.48,21.48,0,0,1-3.63,4.73,13.92,13.92,0,0,0-3.08,4.67c-.18-.17-.14-.64,0-1.06-.4.6-1.38,1-.4,1.73l.2-.74c2.09.33,1,4.56,1.61,5.27-1.9-3.21-3,2.11-5.11-2.23a1.64,1.64,0,0,0,.63,1.78c-.63.37-1.13.22-1.39-.92-1.13,2.37.45,2.53-1.06,4.26-.45-.39-.32-.9-.7-1.53.13,1.64.26,3.27-1.37,4.43-.2-.32-.7-.45-.33-.89-2,2.67-1.25,6.33-4.44,8.4-1.3-2.47-1.44.41-3.29-.87L81,145.68l1.33.08c-1.11,1.3-.81,3.51-2.32,4.18l.1-1.57-1.71,2.75,1.81-.87c-.21,2.08,2.31,1.66.38,3,.12-.5-1.11,1.31-2.7,1.16,0,0,0,0,0,0,0,1.11,0,2.26-1.18,2.89-.76-.2-1.75-1.78-2.26-1.91.93,1.83-2.12,3.44-1.24,5.52a2.82,2.82,0,0,0-1.3-1.39l.74,1.5a1.28,1.28,0,0,1-1.78-.44c-1.72,1.68,2.68,1.21-.06,2.63.05-.25-.19-.31-.08-.82-2.3,1.8-2.7,4.88-4.93,6.44-2.23-.82,1-2.12-1-2.63-2,3.19-2.79,7.76-5.48,10.27l.62-.37c2.17,2.38-2.92,1.13-2.9,3.51.1-.5-1-1.57-.81-1.25-2,1.63-2.58,4.47-4.15,8l-.35-.88c-1.48.7-2.74,2.77-4,3.78.35.88-.32,1.5,1,1.81-6.7.93-3.85,8.86-9.58,9.85.31-.41.2-1.41-.05-1.09l-1.71,3.37c1.27.63,1,.14,2.28.2a3,3,0,0,1-.36,2.81c.31-1.87-1.75-1.37-2.8-1.29.4.17.62.66,1,.88-3.13,0,2,2-.95,3l-.48-.56c-.32,1-.13,2.31-.95,3-1.54-.65.06-1.29-.93-2.16-.86,1.23.55,4.2-1.54,4.27,0-.78.6-1.5.65-2.27-2.39,0-2.12.42-3,1.09l.1-.06-2.24,1.46.8-.19c2.13,4.06-1.75,3.47-1.17,7.14-.51-3.53-.92-1.25-2.23-2.52-.8.19-1.85.61-2.08.08.42,1.84-2.13.84-1.49,3.49-.51-.3-.84,1-1.82-.15-.6,1.5,1,.34,1.52.9.09,3.11-5.38,2.9-5.35,7.3-.94,3,.27,4.67-.66,7.44-1.31.15-1.2-1.92-1.2-1.92a3.79,3.79,0,0,0-2.52,3.15c-.23-.54-.75-.58-1.53-.65-.58,1,1.2,1.91-.4,2.55A8.64,8.64,0,0,1,8.79,238c-.41,1.38-.36,3.09-.8,4.5-1-.35-.7-1.62-.92-2.41-.6,1.5-1.77,3.73-.8,5.1l1.07-.42c-.29.49-1.27-.63-1.24-1.14-.17-1.83,1.63-1.16,2.13-.85l-.31,1c3.32,1.33,2-3.44,3.39-4.87l1.45,2.19-.37-2.87c.78.06,2.06.69,1.75,1.69,1.84-.35.08-1.54,1.91-1.64.25,0,.31.15.31.31l.27-1.55c.25.54,1.53.91.72,1.35,2.67-1.06,1-4.31,3.08-3.87v.26c1.47-3.24-1.24-1.4-1.32-4.76l4.63,1.43L22.5,230c.27-.24.81-.71,1.31-.16-.17-1.81-.77-.31-1.22-1.65,2.37-.31,2.31-4.19,4.84-2.69-.71-1.34-1.86.62-1.49-1.41,2.79,1.53.89-2,3-2.33,1,1.38-.62,2,1.49,1.68-1.57-2.44,2.36-2,2.76-3.39-1.67-1.4,1.07-2.81,1.87-5,.49.56,3.53-2.53,5.42-3.66l.25.28c-1.48-1.68.16-3.09.77-4.59a2.57,2.57,0,0,1,1.17,2.43l.9-1.14a2.3,2.3,0,0,1,0-2.19l1.07,1.3c1.13-1.57.9-4.26,3.31-5.52-1.12-1.07-4.58-1.11-3.75-3.81.71.44,1.88,1.24,1.72,2,.06-.25,0-1.06.52-1.2l.44,1.69c1.19-.5-.54-1.19.12-1.82.92.75,1.08,0,1.74.69-.06.25-.88.31-.73.88a4,4,0,0,1,3.08-1c-.58-.35-1.25-1-.91-1.67,1.14-1.57,1.53.37,2.71-.14-.35-.88,1.09-1.31-.28-2.44.36-.44,1.07,0,1.58.12,0-1.27,2.74-3.8.57-4.09l-.26.13c0-.06,0-.11,0-.18h0c.67-3.67,5-4.71,6.48-7.72l.46.37c.69-1.94,2.4-3.63,2.27-5.51a1.58,1.58,0,0,1,2.09.25c.58-1.44.17-2,2.28-3-.13,1.81,1,.17-.37,1.66,1.61-1.18,2.62-.93,2.66-3.56.74,1.51,2.4.07,2.62-.93l-1.69.37a7.74,7.74,0,0,1,1.82-2.19l1.24,1.64c4.36-1.55,1.28-8.13,6.33-7.9-.43-1.69-2.12,1-2.8-.71,1.36-1.24,4.77-.9,5.14-1.34,2.42-1.23-.8-3.64,1.44-5.18a2.3,2.3,0,0,1-1.71-3.08c1.36-1.24,3.72.17,3.44,1.42-.23.37-.54.39-.72.22-.17.62-.42,1.41.63,1.34l-.4-.63c1.13-.23,2.66-2.21,3.19-1,.35-1.49-.53-1.19-1.46-.64,2.28-1.14,2.33-2.8,4.4-4.2-.55,0-1.42-.22-1.17-.51,2.93-2.13,0-2,1.24-4.08,1.7-.34,1.68,2,2.52-.39,1.5-.65,1.64,1,1.72,1.79.34-2.55,3.29-2.55,4.29-3.33l-.3,1.24a3.56,3.56,0,0,1,.92-1.59l-1.51-.42c.63-.35,1-.78,1.44-.39-.26-1.13-2.15-1.13-2.23-3,1.13-.22,1.18-2.59,2.82-1.6-2.32,1.74,1.65,1,.33,3a2.11,2.11,0,0,1,1.13-1.27c.22.06.23.33.2.54,3-1-.83-2.34,1-4.44.57,1,2,.82,2.08.34-.76.83-1.7-.76-1.64-2.07,1.8-.8.81-1.87,1.5-2.51l-1,.55c-.56-1,.13-1.56.7-2.72.7.46-.31,1.23.25,1.13-.48-2.27,3.51-1.1,3.86-3.35,1.13-.17,1.54,1.28,2.43,1,.41-2.52,2.63-.73,3.29-3.16-1.37-.46-1.32-.22-1.23-1.89l-7.25-8a1.22,1.22,0,0,1,0,.4l.17-.23,7,7.63-1.62,3.17.07-3.17c-.77.82-.93,2.36-1.56,2.7-.1-1.63.08-1.31-1.16-1.71,2,.24,1.61-1.71,2.33-2.8l-3.4-3.72a1.45,1.45,0,0,1-1.18.46l-2.13-2.84c-3.1.38-2.68,4.37-6,5.77l1.27-.19c.47,1.41-1.61,1.46-2.17,2.6-.63-1-1.46-.92-2.29-1.22.58.67-2.09,1.48-.92,3.56l-2.19-.32c-2.65,1.17-.58,4.64-3,5.94-.1-1.53-1.59-1.47-.68-3.29-.73.53-1.52.84-1,1.51-.87-.29-1.09,2.77-2.43,2.36,0,.64.63,1.72-.25,2.24a.93.93,0,0,1-.35-.48c.35.48-.82,1.59.68,2.12-4.43-1.33-6.2,4.81-10,3.65a45.81,45.81,0,0,1-4.54,4.27c-.11-.36-.33-.49,0-.58-2.66.53.71,3.66-2.32,4.27-2.28-.74.64-1.71-.51-1.79-2.56-3-2.5,2.39-5.36,1.6l.25-.45c-1.94-.27-2.08,3.22-4.2,4.33a1,1,0,0,0-.32-.49c-.21,2.57-2.4,4.82-4,6.56-.26-1.66.41-1.25-.81-2.29-.73.75,1.64,1.9.18,3.4-1-.32-2.65-.1-3.73-1.37l1.55-1.15c-2-1.22-2,1.44-3.09,1.7L49,157c-2.29,1.88-1,3.87-3.77,5.48l.67.41c-.18,2.9-1.94-.3-2.44,2.1l-1.74-1.7c-.64,1.1-2.11,4.11-3.6,5.59,0-2.1,1.56-4.16,2.23-5.85-1,.61-3.13,2.25-3,3.55.26-.44.43-1.24,1-1.18a6.37,6.37,0,0,1-3.14,5.27c-2.13-4.08-5.61,2.18-8.89,0-2.49,3.55-7.1,3.58-10.93,6.22,3.27,2.19-1.1.79,1,3.78-.81.76-1.19.93-1.4.78l-3.94-.18c-1.22-.51.46-1.22-.05-1.87-2.18,1-1.65-.82-3.5-.86,1,1,.26,2-1.15,2.3l2.5.48c-1.41,2.58-3,.53-4.55.93l7.9,14.3a2.44,2.44,0,0,0,1.48-1.23l-.43,1.54c1.24-1.43,5.78-3,5.89-6.43.48.22,1.32.89.77,1.51,3.9-1.69,6.63-7.28,10.31-7.41l.18.93c.55-.62.31-2.14,1.62-1.87.15.35.19.93.53.79.2-.48,1-2.41,2.14-2.49l-.24,1.31c4.12-1.15,4-5.42,6.6-7.74,1.41,2.23,4.58,1.16,6.16.63l.16.34c4.21-2.35,5.5-6.4,8.51-9.74,3.88.71,8.22-4.46,12.66-5.93-.83,0-1.17-1.7-.72-2.38,1.15-.21,1.13-3.19,2.49-1.18l-.32.18c2.1,1.41,3.37-.44,4.7-1.44L73,153.38c3.12.41,5.11-1.68,6.75-3.75s3.09-4,5.34-3.2c.28-1.27,1.24-2.15,1.49-3.43l1.09,1.31a22.91,22.91,0,0,0,6.06-5.16l.29,1.39c1.57-1.31-1.47-5.34-.19-6.68L96,135.32c2.56-2.41,6.62-3.41,7.5-7.47.23.3.67.89.34,1.37,1.25-1.09,5.73-3.43,2.81-5.4,1.66,1.54,2.71-2.46,3.27-4.53l1,1.36c-.47-2.64-.87-3.08.2-5.12.52-.24,1.3.56.51.79,1.84-.71-.24-2.08,1.87-3l.25,1.3c1.32-1.25.81-1.52.54-3.1.24-1.3,2.57-2.3,3.88-1.51-.53-.79-.81-2.35.22-2.86a1.08,1.08,0,0,1,.55,1.05,3.89,3.89,0,0,0,1.78-2l10.38-24.25-16,17.43c-1,1.12-1.51,2.48-3.21,2.21a1.45,1.45,0,0,0-.79-.69,18.43,18.43,0,0,1,3.7-1.81c-.76-1.34-2.56-.63-2.28-3.24-.77,1.77-1.82,5.27-3.81,5.57a2.4,2.4,0,0,1-.48-.34l.08-.25a1.25,1.25,0,0,0-.9.8,4.27,4.27,0,0,0-1.58.36c-.83-1-2.26.49-3.13.91.91,1.43-.32,1.81,1.39,2.44-.19,0,.06-.26.58-.64a1.1,1.1,0,0,0,.27-.35v.16c.53-.35,1.22-.79,2-1.27-.23,1.12-.57,2.13-2,1.84.1,1.19.18,2.43.18,3-2.31-1.4-5.13-1.26-6.16-2.34-2.08,2.26-5.69,3.94-5.73,7.61-.52.76-1.28-.32-1.79-.6.26-.52.78-.76.78-1.28-1,1.53-4.13,2.71-3.39,4.83-2.31.17,0-2.35-2.3-.62v-.78c-6.68-.28-5.23,9.46-12.94,8.62.51,0,.77,0,1,.31-3.61.89-6.59,3.12-9.64,5.22a36.51,36.51,0,0,1-4.69,2.86,13.2,13.2,0,0,1-5.22,1.48c-1.94.29-1.45,1.59-2.06,3.06L52,134.92a24.73,24.73,0,0,1-1,2.6c-1.06,1.15-2.55.33-3.64-.53a8.25,8.25,0,0,0-1.47-1c-.4-.16-.8,0-1.58.45-.05.42-.08.85-.09,1.26a4,4,0,0,0-.84-.32,5.61,5.61,0,0,1-.93-.42c-.57-.32-.84-.78-.31-1.24-.21.13-1.11.72-.92,0l.68-.66a6.7,6.7,0,0,1-2.62-1.09c0-1.09.94-1.23,1.78-1.5s1.53-.58,1.64-1.28c-.18-.25-.73-.69-1.19-1.21s-.83-1-1.21-.95a2.07,2.07,0,0,1-.79.48,2.4,2.4,0,0,1-1.22.22,3.67,3.67,0,0,1,.17-1.1A27.45,27.45,0,0,0,34.7,127a3.46,3.46,0,0,0-2.19.17A5,5,0,0,0,30,129.49a11.24,11.24,0,0,0,.65,1.85l.39.87c.16.28.33.55.49.81a12.81,12.81,0,0,0-1.17,1.37,12.94,12.94,0,0,1-.3-3.1,2.14,2.14,0,0,0-.37,2.34,5.69,5.69,0,0,0,1.41,1.61,2.28,2.28,0,0,0-.93,2,19.48,19.48,0,0,0,2,1.17,18.17,18.17,0,0,0,2,.78c-.35.47-1,.46-1.49.59s-.85.44-.3,1.65c1,.34,1.24-.4,1.53-.94s.64-.9,1.72-.21c.1,2-.84,2.53,1.34,2.95-.22.75-.82.86-1.67.55,1,.3,2,.94,3.06,1.34a2.71,2.71,0,0,0,2.71,0c.52,1,2.06,1.32,3.29,1.5s2.13.32,2.08,1.64a12.23,12.23,0,0,1,1.77-1.36,9.14,9.14,0,0,1,2.21-1.21c-.95,1.77.35,1.63,1.86,1.31s3-.79,3.34.91c.38-1.64,1.64-2.51,3-3.34s2.79-1.62,3.49-2.92c0,.27,0,.8-.3.78,1.37-.49,2.12.07,3.14.11-1-2.13.56-3.64.83-5.46,2.56,1.16.49,2.9,2,4.54-1-1.62,1.57-3.08.3-4.18,1.79.59,1.28.05,2.81,1.42-1.25-2.66.79-1,.81-3.1,2.31.36,1.77,2.16,3.08.39C76.11,136.43,75.06,138.22,75.06,138.22Zm39.2-28.07,0,0-.82.57Zm3.49-2a11.56,11.56,0,0,0-1.55.8c-.41-.44-.57-1-.2-1.21C116,108.18,117,108,117.75,108.14Zm-13.18-6c.44-.52.79-.34,1-.08a7.46,7.46,0,0,0-.87.73c0,.06,0,.14,0,.22A3.58,3.58,0,0,1,104.57,102.17Z"/><path class="cls-1" d="M104.67,104.66c-.06.08-.07.17-.17.24a2.39,2.39,0,0,0,.52.14l-.07-.57Z"/><path class="cls-1" d="M54.78,191.2l.08,0a.76.76,0,0,1-.3,0C54.66,191.16,54.7,191.19,54.78,191.2Z"/><polygon class="cls-1" points="74.55 135.45 74.83 135.77 74.85 135.26 74.55 135.45"/><path class="cls-1" d="M36.45,205a.82.82,0,0,0-.52,0A1,1,0,0,0,36.45,205Z"/><path class="cls-1" d="M30.2,212.27l-1.31.69A5.81,5.81,0,0,0,30.2,212.27Z"/><path class="cls-1" d="M25,217.54a2.86,2.86,0,0,0,.48.56h0Z"/><path class="cls-1" d="M97.42,125.05a.71.71,0,0,0,.13-.26C97.75,124.06,97.54,124.49,97.42,125.05Z"/><path class="cls-1" d="M77.93,154.42a6.06,6.06,0,0,1,.1-1.37C77.54,153.45,77.2,153.8,77.93,154.42Z"/><path class="cls-1" d="M94.48,142.77s0,0,0,0l-.2.15Z"/><path class="cls-1" d="M79.08,151.81a1.65,1.65,0,0,0-1,1.24A2.41,2.41,0,0,0,79.08,151.81Z"/><path class="cls-1" d="M4.61,242.15l-.28.24a.59.59,0,0,1,.19.2Z"/><path class="cls-1" d="M4.52,242.59l-.09.43C4.54,242.88,4.63,242.75,4.52,242.59Z"/><path class="cls-1" d="M4.25,243.93l.18-.91C4.25,243.24,4,243.49,4.25,243.93Z"/><path class="cls-1" d="M11.26,235l-.41-.47A1.56,1.56,0,0,0,11.26,235Z"/><path class="cls-1" d="M13,232.54c-.54.47-2.12.58-2.43,1.6l.33.37C10.42,233.58,13.35,233.7,13,232.54Z"/><path class="cls-1" d="M26.55,227.5l-1.92,1.65c.78.06,1.82.15,1.24,1.14C29.34,229,24.33,229.89,26.55,227.5Z"/><path class="cls-1" d="M32.06,222c-.59,1.24.75.58,1,.86C33.12,221.86,33.12,221.6,32.06,222Z"/><path class="cls-1" d="M66.67,178.48l1.12,1.06C68.26,178.6,67.33,179.16,66.67,178.48Z"/><polygon class="cls-1" points="67.18 165.21 65.81 165.39 66.6 166.65 67.18 165.21"/><polygon class="cls-1" points="79.63 167.21 79.52 167.7 80.16 166.02 79.63 167.21"/><path class="cls-1" d="M77,137.13l1.35,1.36C78.73,137.8,77.61,136,77,137.13Z"/><path class="cls-1" d="M45,161.42c-.88-.55-2.16-.44-2.24.72C43.58,161.75,44.74,161.88,45,161.42Z"/><polygon class="cls-1" points="76.12 153.93 75.87 154.94 76.75 153.55 76.12 153.93"/><path class="cls-1" d="M273.4,61.36c.13.52.75,1.51.94,1.14l-.73-1.87Z"/><path class="cls-1" d="M277.25,63.41a8.37,8.37,0,0,0-1.71-4.18c.61,1.85.13,1.2.87,3.39-.19.38-.85-.25-1.15-.91.14.5-.69-.12-.25,1.07,1.14,1.12,1.7.87,1.6-.53A3.72,3.72,0,0,1,277.25,63.41Z"/><path class="cls-1" d="M305.86,42l-.33.05A.43.43,0,0,0,305.86,42Z"/><path class="cls-1" d="M317.94,22.76a.43.43,0,0,0,.29.4C318.18,23,318.12,22.78,317.94,22.76Z"/><path class="cls-1" d="M321.66,17.82l-.2.34C321.68,18,321.81,17.9,321.66,17.82Z"/><path class="cls-1" d="M305.86,42l.85-.12C306.22,41.47,306.14,41.86,305.86,42Z"/><path class="cls-1" d="M278.77,56.87a1.41,1.41,0,0,0,0,.6,1.93,1.93,0,0,1,.13-.32Z"/><path class="cls-1" d="M300.65,50.74l-.13.14c.13.2.29.42.48.67Z"/><path class="cls-1" d="M295.31,56.43c.18-.07-.91-1.35-1.36-1.94.4.58.52.91.5,1.11A8.8,8.8,0,0,0,295.31,56.43Z"/><path class="cls-1" d="M283.91,61.64l0,.31C283.87,61.86,283.91,61.75,283.91,61.64Z"/><path class="cls-1" d="M304.61,46.8a3.76,3.76,0,0,0,.51.33A2.78,2.78,0,0,0,304.61,46.8Z"/><path class="cls-1" d="M192.94,43.48h.3C193.07,43.44,193,43.42,192.94,43.48Z"/><path class="cls-1" d="M201.75,35.09l.08.13.94.11Z"/><path class="cls-1" d="M321.72,6.49v.06C322,6.7,321.92,6.57,321.72,6.49Z"/><path class="cls-1" d="M252.46,12.75c1.14,1.22-.54,2.21,1,3.47C253.17,15.63,253.62,13.41,252.46,12.75Z"/><path class="cls-1" d="M279.05,57a.62.62,0,0,1,.22-.17C279.13,56.81,279.07,56.87,279.05,57Z"/><path class="cls-1" d="M253.46,16.22v0l.15.11Z"/><path class="cls-1" d="M299.2,1.52a3.92,3.92,0,0,0,.28.7A3,3,0,0,0,299.2,1.52Z"/><path class="cls-1" d="M314.76,4.64c-.08-.13-.15-.26-.23-.38A.71.71,0,0,0,314.76,4.64Z"/><path class="cls-1" d="M293.46,4.89c-.18-.1-.27-.32-.45-.06l.1.19C293.15,4.78,293.23,4.66,293.46,4.89Z"/><path class="cls-1" d="M287.13,6.09c.06.12.12.2.18.31l.18-.13Z"/><path class="cls-1" d="M195,63.86a9.3,9.3,0,0,1,1.46-.51C195.28,63.62,194.73,62.69,195,63.86Z"/><path class="cls-1" d="M279.29,57.67c-.2-.38-.27-.58-.24-.71a.76.76,0,0,0-.12.19A2.43,2.43,0,0,0,279.29,57.67Z"/><path class="cls-1" d="M295.54,18l-1-.07A2,2,0,0,0,295.54,18Z"/><path class="cls-1" d="M218.41,41.13l0,.27C218.44,41.39,218.46,41.32,218.41,41.13Z"/><path class="cls-1" d="M291.71,18.74a3.14,3.14,0,0,0-.76-1,2,2,0,0,0,0,.45Z"/><path class="cls-1" d="M196.48,63.34h0Z"/><path class="cls-1" d="M191.71,56.77c0,1,2.2.29,3.49.4.74,1.14-1.57.71-2.66,1.23.66.71,2.74,1.07,2.72,1.64a1.9,1.9,0,0,1-.95.13c1.84.59.37,2.36,2.69,3a2.55,2.55,0,0,1-.52.19,18.65,18.65,0,0,1,3-.56c.09.44,1.5.61.09,1,0-.27-.58-.21-1.05-.27l.69.37c-2,.72-.81-.52-2.33-.31.81.82,2.67,1.6,2.2,2.37-2,.48-.93-1.51-2.58-.3l.61-1.2c-3.06,1.31.12-.69-3.17.58-.36,1.55,1.28,1.46.94,3,1.17.13,1.63-.39,2.8-.27,2.12,1.46-3.4,2.33-2.4,3.23l10.52,9.44,2.32-4.71a2.22,2.22,0,0,0,.21-.91c-.18-.75-.68-1.63-.88-2.33s-.11-1.14.91-1.41c.49.62,1,1.28,1.4,2a1.76,1.76,0,0,0,.06-2.4c-.34-.66-.64-1.13.55-1.84.65.76-.14,2,.26,1.79,1.18-.27,1-.74.63-1.19s-1-.93-.81-1.44l2,.49a9.49,9.49,0,0,0,.13-1.93,10,10,0,0,0-.31-1.84c-.07-.3-.14-.6-.22-.88l-.27-.8c-.17-.51-.28-1.06-.4-1.51.61.1,1.25.45,1.87,0-1-2.54-.08-5,.91-7.06l-1.83-.49c0-.16.76-.38,1.12-.24.59-.77-1.12.08-1.84-.18-.17-.4,1-.62,1.5-.44a6.29,6.29,0,0,1-2.1-2,1.28,1.28,0,0,1,.59-2l.51.21c.37-.34-.5-.56-1.27-.85s-1.42-.62-.53-.81l.28.17c.51-.68.46-1.38.78-2s.93-1.1,2.3-.69c-.93-.84-.51-1-.13-1.13s.61-.39-.57-1.69c1.94.58,2.13,1.25,3.88,1.37.37-.07-.89-2.1-.66-2.7l1,1.52c-.19-.65-.37-1.32-.51-2l1.49,1.68.15-.65c-.22,0-.78-.5-1-1,.09-.56.68-.53,1.28-.24a3.85,3.85,0,0,1,1.45,1.24c.27-.74.58-1.49.93-2.24a3,3,0,0,1,.11,1.59c.06-2.14,1,1.66,1.08-.29a5,5,0,0,1-.56-1.37,1.59,1.59,0,0,0,2.46-.41l.37,1.23c1.55-.32,2.75-1.87,4.36-2.55-.81-.29-1.55-2.38-1.16-2.78l1,1.71c-.17-1.24-.79-.47-.74-2.09.7,0,1.28,1.88,1.18,2.6l.47-.93a11.36,11.36,0,0,1,.46,1.58c-.17-1.24,2,1.29,1.64-.84l.26.52c1.61-.65,2.09-1.58,3.37-2.19-.6-1.58.06-1.43-.05-2.86,1.18.12,2.73.91,3.86.33.53-1.09-.26-1.42-.25-2.5.61,1.41,1.74.83,1.52,2.09a7.61,7.61,0,0,0,3.07-2.8c-.41-.52-.73-.7-.79-1.23.24-.36,1,.33,1.17,1.05l0,.17c1.27-2.9,6.16,2.55,6.73-1l0,.18,1.15-2.16c.86,0-.1,1.26.78,2,1-3.06,3-.58,4-2.69,2.51,3.93,4.05-1.58,6.46.71l-.39-1c.11-1.13.67.43,1,.58-.27-.78-.71-.79-.62-1.42a8,8,0,0,1,5.44-1.11c2,.16,4,.61,5.93.61,1.36,0-.61-5.54,1.67-3.47v2c2.08-3,5.42-1.21,7.58-3.77-.06.48.06,1.06-.19,1.12.85,1.27,2.05-.37,1.81-1.53.44.05.32,1,.69,1.56.73.71,1-2.09,1.6-.75.1.22-.06.49-.14.62.22-.76,1.71-.18,1-1.74,1.13.57,1.74-1.09,2.71-.28.16-1.92,1.85.56,1.53-2,.43,2.67,2.12,1.82,2.52.46-.06.84.7.74.65,1.9.7-.16,1.27-.77.9-2.12,1.86,3,2.22-3.05,3.64.95a26.45,26.45,0,0,1,2.79-2.3A22.38,22.38,0,0,0,305.2,13a4.54,4.54,0,0,1-.1,1.25.59.59,0,0,1-.1.21s-.07.07-.2.11c-.41.13-.9.31-.65,1.71a2.73,2.73,0,0,0,.53-.55l.22-.29a.54.54,0,0,0,.15-.29,4.81,4.81,0,0,1,.3-1.1c.26-.67.73-1.12,1.08-.78.11.38-.42,1.19-.53,1.66.39-.57.73-.48,1-.41s.52.1,1.35-.42c-.19.22-.45.44-.64.62.17,0-.08.47.85-.64l-.36.24A7.83,7.83,0,0,1,310.32,12c.85-.6,1.79-1,2.2-1.34-1.66,1.33-1.61,1.73-1.75,2.14s-.49.89-2.64,2.47a10.64,10.64,0,0,0,1.64-1.11c-.12.3-.59.66-1.54,1.25.85-.16,2.11-1.13,2.3-.62-.62.34-.9.38-1.63.77,1.26-.55,2.62-.79,2.15-.06-.39.12-.89.36-.9.23.15.3,1,.36,1.63.66s1,.79.3,1.35c-2.64-.31-1,.33-3.29.18a4.67,4.67,0,0,1,.58.41,11,11,0,0,0,1.15,0c-.08.2.25.46.48.74s.37.58-.06.65a8.69,8.69,0,0,0-.75-.61l.05.44a4.71,4.71,0,0,1-.06.69,5.94,5.94,0,0,1,1.08-.36,4.13,4.13,0,0,0,1.52.95c.45.19.68.33.18.69-.12-.28-.34.72-1.71.57h0c.5.63,1,1.31.29,1.61-.71-.15-2.21-1.12-2.68-1.23,1.57,1.12-.3,1.82,1.3,3.12a6,6,0,0,0-1.65-.93l1.24.95c-.6.11-.83.05-1.65-.41-.71.83,2.7.95,1,1.56-.07-.15-.29-.21-.41-.5-1.14.84-.31,2.64-1.53,3.33-2.12-.8,0-1.17-1.85-1.74a12.94,12.94,0,0,0,0,2.93c0,1,0,2-.7,2.55l.38-.12c2.56,1.9-2,.18-1.19,1.68a3.49,3.49,0,0,0-1.06-1c-1,.65-.61,2.31-.81,4.29l-.54-.65c-1,.11-1.35,1.15-2.1,1.47.52.67.16.91,1.25,1.45-2.52-.57-2.64.62-2.77,1.85s-.15,2.58-2.26,2c.15-.18-.15-.88-.28-.75l-.58,1.71c1.11.85.77.42,1.8.89.46.71.59,1.5.3,1.82-.14-1.2-1.63-1.52-2.4-1.82.34.25.6.65.93.93-2.38-1.07,1.92,2.06-.13,1.77l-.47-.55c-.06.57.32,1.55-.18,1.75-1.27-1-.18-.87-1.09-1.83-.41.53,1.15,3.13-.41,2.42-.1-.53.2-.83.1-1.36-1.79-.88-1.51-.48-2.07-.35h.07c-.46.07-.95.1-1.42.14l.56.19c2.2,3.64-.75,1.71.2,4.54-.87-2.71-.85-1.26-2-2.69-.54-.18-1.24-.33-1.48-.8.54,1.45-1.41-.33-.62,1.79-.39-.43-.47.31-1.3-.9-.24.79.76.69,1.18,1.29.22,1.11-.64,1.07-1.5,1.06s-1.69.11-1.48,1.67c-.38,1.72.53,3.44,0,5a2.58,2.58,0,0,1-.92-2c-1.06-.32-1.38.1-1.54,1a2.84,2.84,0,0,0-1-1.22c-.35.4.87,2-.18,1.61a16.29,16.29,0,0,1-.84-2.25c-.2.76-.12,2-.38,2.78-.67-.78-.49-1.51-.66-2.19a3.5,3.5,0,0,0-.4,3.24l.69.25c-.18.21-.83-1.12-.82-1.47-.15-1.4,1,0,1.36.5l-.18.56c2.19,2.68,1.26-1.44,2.11-1.74l1,2.3c-.11-.75-.22-1.5-.35-2.25.52.43,1.41,1.51,1.24,2.08,1.24.64,0-1.07,1.24-.26a.47.47,0,0,1,.22.37l.12-1c.2.51,1.1,1.39.56,1.32,1.81.49.5-2.6,2-1.35v.19c.82-1.68-.95-1.58-1.27-4l3.39,3.1-1-1.55c.18,0,.53-.14.93.47-.27-1.37-.57-.56-1-1.72,1.68.82,1.22-2,3.22.14-.66-1.26-1.28-.34-1.23-1.63,2.2,2.24.42-1.05,1.92-.43.89,1.38-.23,1.19,1.3,1.8-1.46-2.37,1.49-.53,1.63-1.36-1.45-1.65.44-1.58.69-2.86.46.57,2.26-.55,3.55-.7l.24.27c-1.43-1.67-.45-2.13-.27-3A3.75,3.75,0,0,1,300,51.41l.48-.53a1.75,1.75,0,0,1-.39-1.52l1.08,1.24c.61-.76-.14-2.7,1.47-2.9-1.13-1-3.84-2.09-3.83-3.69.66.51,1.78,1.39,1.82,1.86,0-.15-.28-.73.13-.67l.74,1.29c.82,0-.7-1-.32-1.22.9.77.85.3,1.53,1,0,.16-.62,0-.38.4a2.78,2.78,0,0,1,2.24.17c-.55-.4-1.22-1-1.12-1.39.52-.79,1.31.65,2.13.59-.5-.7.54-.65-.84-1.75.18-.21.86.25,1.31.47-.31-.87,1.23-2-.61-2.65l-.18,0c0-.05,0-.07,0-.12h0c-.25-1.16.43-1.67,1.21-2.11s1.68-.84,1.78-1.71l.49.33c0-1.16.82-2,.11-3.21.14-.23,1.25,0,1.79.48,0-.85-.54-1.26.83-1.65.52,1.15.92.25.27,1,.92-.55,1.86-.28,1-2,1.15,1.06,2,.3,1.83-.32l-1.27.06a1.92,1.92,0,0,1,.71-1.21l1.63,1.16c1.54-.3,1.08-1.58.7-2.69s-.62-2.07,1.55-1.88c-1-1.06-1.35.54-2.62-.58.61-.67,3.64-.32,3.75-.6,1.52-.71-2.2-2.24-1-3.12-.72-.12-2.53-.73-2.78-1.83.56-.63,3.27-.15,3.51.83,0,.24-.29.25-.51.15a1,1,0,0,0,1.11.8l-.61-.38a1.23,1.23,0,0,0,.58-.27,6.42,6.42,0,0,0,.57-.59c.39-.39.76-.67,1.25-.28-.3-1.21-1-.72-1.58-.15a3.23,3.23,0,0,0,1.16-2,6.31,6.31,0,0,1,.75-2.17c-.45.27-1.34.45-1.28.2,1.3-2.38-1.18-1-1.33-2.42,1.13-1,2.63-.06,1.72-1.5.69-1.15,1.86-.68,2.47-.32a1.94,1.94,0,0,1-.3-2.28,7.53,7.53,0,0,0,.66-2.18l.81.68a2.71,2.71,0,0,1-.77-1.3c-.37.38-.74.73-1.13,1.09.06-.59-.1-1,.44-1.26a2.93,2.93,0,0,0-1.56.65,2.91,2.91,0,0,1-1.92.5c.2-.45-.16-.76-.41-1.07s-.36-.65.35-1.3c.28,1,.61.7,1.07.29s1-.93,1.57-.2a1.38,1.38,0,0,1-.66-1.15.42.42,0,0,1,.53-.1c.09-1.41-.53-1.3-1.27-1s-1.61.67-2.31,0c1-.54,1.11-1.76.65-1.83.68.6-1,1.5-2.06,1.67-.46-1.37-1.5-.28-2-.64.13.22.26.43.38.65-.87.74-1.25.33-2.14.35.38-.73,1-.21.91-.63-.93.62-1.07,0-1.33-.63s-.61-1.44-1.51-1c-.34-.81.69-1.91.27-2.5-1.07.54-1.37.11-1.77-.31a1.29,1.29,0,0,0-1.88-.34c.35,1.44.39,1.07-.93,2.48a21.76,21.76,0,0,1,2.93-.9,18.45,18.45,0,0,0-2.14,2c.72,0,1.8-.83,2.2-.52-1.1,1-.87.73-.88,1.91-.17-1.08-.78-.81-1.33-.41s-1.06.89-1.56.2l.22-3.56c-1-.75-2.07-.2-2.94.46-.65.63-1.2,1.36-2.09,1l.62.53c0,1.43-1,.36-1.44,1a5.16,5.16,0,0,0-.87-2.24c.16.86-1.23.11-1,2.47l-1-1.42c-1.45-.42-1,3.58-2.31,3.41.17-1.34-.56-2.07.15-3.12-.43.06-.86-.09-.72.72-.38-.68-.91,1.78-1.5.74-.09.54.07,1.78-.42,1.76a2,2,0,0,1-.1-.57c.1.57-.61.91.05,2.13-2-3.39-3.59.95-5.33-1.94a12,12,0,0,1-2.7,1.43c0-.35-.12-.57.06-.49-1.38-.83,0,3.48-1.57,2.55-1.07-1.73.48-1.16-.09-1.78-1-3.77-1.48.84-2.85-1.17l.17-.27c-1-1.14-1.33,1.81-2.49,1.79a2.22,2.22,0,0,0-.13-.57,5.93,5.93,0,0,1-2.5,3.87c0-1.56.29-.9-.27-2.36-.42.33.72,2.39-.12,3A8.22,8.22,0,0,1,273,9.58l.87-.31c-1-2-1.14.35-1.69.11L272,8.46c-1.3.63-.74,2.91-2.24,3.13l.33.65c-.21,2.47-1-1.1-1.35.79l-.85-2.22a13.76,13.76,0,0,1-2.07,3.37c.06-1.83.94-3,1.36-4.18-.53.12-1.74.64-1.71,1.84.16-.28.27-.91.57-.61-.16,2-.74,3.08-1.78,3.33-1.06-4.47-3-.35-4.75-3.57-1.36,2.19-3.86.4-5.93,1.32,1.82,3.17-.59.3.64,3.76-.42.38-.63.38-.74.17l-2.16-1.61c-.68-.91.22-.93-.07-1.69-1.18.08-.94-1.34-2-2,.55,1.2.2,1.9-.58,1.63l1.4,1.33c-.91,2.33-2.27-2.51-3.2-.15l.12-1.26c-.57.91-2.91,1-2.71,4-.28-.35-.79-1.24-.53-1.6-2,.23-3.09,4.43-5.14,3.23l-.17-.89c-.26.37,0,1.8-.76,1.12-.11-.36-.17-.89-.35-.88-.08.36-.37,1.81-1,1.5l0-1.1c-2.22-.41-1.9,3.33-3.16,4.5a4,4,0,0,0-3.54-2.82l-.11-.36c-2.23.52-2.73,3.47-4.23,5.21-2.3-2.16-4.47.61-7,0a2.75,2.75,0,0,1,.55,2.29c-.65-.3-.49,2.24-1.42,0l.18,0c-1.33-2-2.05-1-2.85-.66l1.27,2.91c-2-1.58-3.16-.52-4.11.61s-1.68,2.25-3.42.95c0,1-.65,1.45-.63,2.42l-1-1.36a10,10,0,0,0-2,1.17,8.47,8.47,0,0,0-.88.84,10.82,10.82,0,0,0-.92,1.27l-.57-1.18c-.52.48.11,1.63.83,2.74s1.51,2.14,1.25,2.61c-.75-.39-1.51-.78-2.28-1.15-.65,1-1.73,1.77-2.5,2.85a3.33,3.33,0,0,0-.33,3.84c-.35-.12-1.07-.35-1.06-.78a13.78,13.78,0,0,0-.95,2.58c-.07.89.33,1.61,2.08,1.54-1.12-.1-1.26.55-.9,1.21a7.81,7.81,0,0,0,1.63,2l-1.68-.1c2.18.79,2.75.79,3.42,1.86-.19.27-1.31.34-.91,0-.8.95,1.63.55.84,1.66l-1.1-.27c0,.89.53.75,1.82,1.09.73.47-.24,1.63-1.73,1.93.93,0,2.21.32,1.82.84a1.92,1.92,0,0,1-1.11-.08c-.5.71,0,1.16.49,1.53s.84.76,0,1.21a3.35,3.35,0,0,0-1,.17c0-.92,0-1.74.15-1.67-1.53.15-1.75.89-3.91.49a20.58,20.58,0,0,1,2.26,1c.69.34,1.15.75.8,1.09a3.11,3.11,0,0,1-.54.07l-.17-.06c-.15.14,0,.23.23.36-.26.16-.46.25-.49.41-1.25,0-.76.37-.83.56,1.67.3,1.36.58,2.76.55-.12,0-.19-.09-.24-.28a.34.34,0,0,0-.15-.14l.14,0c0-.18,0-.39,0-.71.86.31,1.52.69.54.86a22.84,22.84,0,0,1,2.61,1c-1.22,0-2.19,0-3,0a6.2,6.2,0,0,1-2.15-.57c.68.62.45.57,1.44,2.53l6.58,2.42a7.76,7.76,0,0,0-1.09-.15c-.47-.3.81-.6,1.27-.83.36.15.36.41.82.44-.93-.58-.72-2.11-2.92-1.91.82-1.11,2.1.18,1.52-1l.7.06c1.53-1.54,0-2.31-1.44-3.2s-2.72-1.9-.62-3.57a1.31,1.31,0,0,1-.73.42c.81-1.73.2-3.34-.24-5s-.69-3.34.86-5c.62-.92-.8-1-1.87-1.54l1.81-.21-2.1-1c-1.53-1.4,4.45-2.29,1.61-4l-1.22.18c.23-.61-.64-2,.75-1.82-.22-.08-1.26-.27-.61-.48l1,0-1.54-1.61c.76-1.13,3.74.42,4-1.24-.31-.64-2.6-2-3.25-1.84-.07.26-.64.61-1.59.55l-.45-.63c-2.77-.35-5.58-1.11-7.65.27l1.62,1.21-1.38.25V36c-1.32.42-.22.84.53,1.25a3.06,3.06,0,0,0-1.51.36L196,38.85c-1.1.07-2.13-.6-2.78.08,1.21.57,2.47-.33,3.24.52-1.29.44-2.31.25-1.26.9a1.93,1.93,0,0,1-1.48-.35c.84.58.3,1.45,1.78,1.78-1.58.49.36,1.81-2.28,1.71.63.18,2.06,1,2.17,1.47-3.16-.93-.2,1.84-3.58,1.62,2.84.66,1.29,2.43,2.91,3.58-.23-.06-.69-.18-.55-.29-.22.68-1.06.91-1.58,1.36,2.35,0,2.93,1,4.41,1.47-2.21.94-2.78-.34-4.94,0,1.89-.14,2,1.32,3.55,1a5.81,5.81,0,0,1-2.57,1c2.94-.1.53.55,2.38.93-1.37,1-2.73.46-1.76,1.38C192.82,57.58,191.71,56.77,191.71,56.77Zm19.1,4.65h0c0,.23.08.43.1.57A4.35,4.35,0,0,0,210.81,61.42Zm-.11-2.17a4,4,0,0,0,0,.92c-.58.1-1.18,0-1.16-.17C209.93,60.09,210.23,59.59,210.7,59.25ZM199,62.63c-.21-.14.12-.17.46-.16a.87.87,0,0,0,.17.28l.2,0C199.54,62.74,199.25,62.68,199,62.63Z"/><path class="cls-1" d="M201.17,63.22s.1.06.11.1l.39,0-.51-.15A.38.38,0,0,1,201.17,63.22Z"/><path class="cls-1" d="M305.48,42.07h0a.74.74,0,0,1-.24-.08Z"/><polygon class="cls-1" points="217.47 42.71 217.23 42.36 217.34 42.74 217.47 42.71"/><path class="cls-1" d="M294.38,46.22A1.23,1.23,0,0,0,294,46,1.55,1.55,0,0,0,294.38,46.22Z"/><path class="cls-1" d="M291.06,49l-.85,0A2.28,2.28,0,0,0,291.06,49Z"/><path class="cls-1" d="M288.06,50.58c.17.25.3.43.43.59h0Z"/><path class="cls-1" d="M307.61,14.69a.17.17,0,0,0-.1.05C307.2,15,307.35,14.91,307.61,14.69Z"/><path class="cls-1" d="M311.25,22.12a4.82,4.82,0,0,1-.54-.78C310.48,21.54,310.37,21.73,311.25,22.12Z"/><path class="cls-1" d="M295.65,18v0a.22.22,0,0,1-.11,0Z"/><path class="cls-1" d="M311,20.68c-.42.13-.45.37-.32.66C310.91,21.17,311.17,21,311,20.68Z"/><path class="cls-1" d="M276.24,58.27l-.17,0a1.47,1.47,0,0,1,.13.24Z"/><path class="cls-1" d="M276.2,58.54l-.05.26C276.22,58.76,276.27,58.71,276.2,58.54Z"/><path class="cls-1" d="M276.05,59.35l.1-.55C276,58.87,275.88,58.9,276.05,59.35Z"/><path class="cls-1" d="M280.28,56.6l-.3-.53A3.26,3.26,0,0,0,280.28,56.6Z"/><path class="cls-1" d="M281.26,55.71c-.34.07-1.39-.63-1.52-.07l.24.43C279.63,55.2,281.6,56.73,281.26,55.71Z"/><path class="cls-1" d="M290.39,58.28l-1.23.38c.56.39,1.33.9,1,1.36C292.55,60.58,289,59.08,290.39,58.28Z"/><path class="cls-1" d="M293.86,56.59c-.28.66.63.7.85,1C294.63,56.87,294.6,56.69,293.86,56.59Z"/><path class="cls-1" d="M311.32,35.84l1.27.86C312.67,36.15,312.09,36.39,311.32,35.84Z"/><polygon class="cls-1" points="306.9 27.58 305.85 27.52 306.99 28.38 306.9 27.58"/><polygon class="cls-1" points="318 29.91 318.1 30.21 317.97 29.18 318 29.91"/><path class="cls-1" d="M288,4.41l.51,1.82C288.73,5.84,288.4,3.74,288,4.41Z"/><path class="cls-1" d="M269.65,10.52c-.44-.86-1.11-1.31-1.2-.33C268.9,10.21,269.5,10.81,269.65,10.52Z"/><polygon class="cls-1" points="214.06 27.18 214.16 26.42 213.68 27.26 214.06 27.18"/><path class="cls-1" d="M312.4,141c-.12-.58-1-1.35-1.48-.65l.85,1.88Z"/><path class="cls-1" d="M305.83,141.75c-.11,1.36.1,3.35,1.75,4.37-.48-2.07.21-1.61-.47-4a1.12,1.12,0,0,1,1.86.21c-.11-.57,1.25-.49.77-1.72-1.81-.48-2.85.33-3.11,2.22C306.12,142.67,306,142.08,305.83,141.75Z"/><path class="cls-1" d="M237.3,180.17l.56,0A.89.89,0,0,0,237.3,180.17Z"/><path class="cls-1" d="M234.31,173.67a.55.55,0,0,0-.17.68C234.33,174,234.48,173.75,234.31,173.67Z"/><path class="cls-1" d="M242.33,169.9c-.19.08-.33.16-.49.24C242.11,170.15,242.33,170.09,242.33,169.9Z"/><path class="cls-1" d="M237.3,180.17l-1.43-.07C236,180.73,236.67,180.28,237.3,180.17Z"/><path class="cls-1" d="M300.22,152.38a1.76,1.76,0,0,0,.25-.86,4.7,4.7,0,0,1-.4.59Z"/><path class="cls-1" d="M255.87,169.56l.34-.19a4.85,4.85,0,0,0-.09-.87Z"/><path class="cls-1" d="M269.92,161.27c-.35.13.41,1.64.67,2.35a1.64,1.64,0,0,1,.09-1.42A4.86,4.86,0,0,0,269.92,161.27Z"/><path class="cls-1" d="M293.11,149.19l.23-.46C293.29,148.86,293.17,149,293.11,149.19Z"/><path class="cls-1" d="M245.26,174.44a2.19,2.19,0,0,0-.39-.49A1.44,1.44,0,0,0,245.26,174.44Z"/><path class="cls-1" d="M237.43,76.42c0-.11-.09-.17-.13-.27C237.29,76.34,237.31,76.46,237.43,76.42Z"/><path class="cls-1" d="M216.77,77.75l.19-.21c-.14-.29-.27-.58-.42-.85Z"/><path class="cls-1" d="M258.47,152l-.08.11C258.34,152.67,258.46,152.36,258.47,152Z"/><path class="cls-1" d="M258.4,153.63c-1.51-.06-.7-1-.25-1.87a1.49,1.49,0,0,0,.29-1.15c-.12-.28-.53-.39-1.41-.35.28.21,0,1.19-.23,2S256.69,154,258.4,153.63Z"/><path class="cls-1" d="M299.74,152.47a4.42,4.42,0,0,1-.53.44A1.22,1.22,0,0,0,299.74,152.47Z"/><path class="cls-1" d="M257,150.26h0l-.36,0Z"/><path class="cls-1" d="M249,144.06a2.29,2.29,0,0,0-.76-.36A1.41,1.41,0,0,0,249,144.06Z"/><path class="cls-1" d="M254.82,144.88l-1-.22A2.28,2.28,0,0,0,254.82,144.88Z"/><path class="cls-1" d="M258.21,132.51c.35-.18.61-.12.79-.64a.8.8,0,0,0-.26,0C258.79,132.13,258.69,132.38,258.21,132.51Z"/><path class="cls-1" d="M267.55,120.77c-.15,0-.29,0-.43,0l-.19.45Z"/><path class="cls-1" d="M254.65,56.75a5.82,5.82,0,0,1,1.47.75C255.19,56.71,256.55,55.05,254.65,56.75Z"/><path class="cls-1" d="M299.64,151.63c.19.39.22.64.1.84a3.7,3.7,0,0,0,.33-.36A.94.94,0,0,0,299.64,151.63Z"/><path class="cls-1" d="M248.89,123c.53-.43,1.05-.88,1.55-1.34A9.67,9.67,0,0,0,248.89,123Z"/><path class="cls-1" d="M237.78,125.4l-.44,1.14A2.5,2.5,0,0,0,237.78,125.4Z"/><path class="cls-1" d="M254.07,116.82a2.93,2.93,0,0,0,1.62-.23,1.64,1.64,0,0,0-.21-.45C255,116.38,254.55,116.6,254.07,116.82Z"/><path class="cls-1" d="M256.14,57.51h0Z"/><path class="cls-1" d="M262.77,67.84c2-.62.22-2.37.23-3.71,2.17-1.41,1.61,1.17,2.77,2,1-.79,1.52-2.33,2.23-3.14l-6.16-11.42a1.47,1.47,0,0,1-.51.71c-.3-.22-.56-.18-.64-.71-.2,2.44-3.87,3.25-4,6.23a1.36,1.36,0,0,1-.54-.26,9,9,0,0,1,2.16,2.16c-.73.64-.5,2.22-1.7,1.33.48-.34.15-.82.08-1.35l-.39,1.13c-2-1,.62-1.44-.36-2.63-1.11,1.79-1.79,4.59-3.33,5.12-1.55-1.35,2.3-2.82-.43-2.9l2.32-.91c-3.44-1.32,1.25-.74-2.22-2.33-2.79,1.54-2,3-4.8,4.61.2,1.32,1.27,1.13,1.47,2.44-2,4.43-6-1.56-6.69,2.68.27,1.58,1.77,3.7-.87,4.29l-1-2.24c-2.42,1.94,1,3.61-2.4,4.71-.22-1.05,1.22-2.22.69-2.1-2.78.13-.17,2-1.3,3.08l-1.67-1.22c-2.13,2.57-3.59,6.21-5.7,9.2-.32-.55-.38-1.45-1.42-1.21-2.3,4.19-6.53,7.41-10.22,10.91.16.84.34,1.69.52,2.51-.3.49-1.28.66-1.22-.15-1,1.15-.8,1.31-.32,1.36s1.2.06,1.19.76c-.58,1.35-1.9,1.5-1.94.38-.52,2.59-1,5.8-1.34,8.68a38.45,38.45,0,0,1-1.73,8.21l-.53-.53a2,2,0,0,0,.27,1.86,2.45,2.45,0,0,0,1.15.67c.84.31,1.47.53.93,2.48l-.35-.27a16.32,16.32,0,0,0,1,4.82,24.71,24.71,0,0,0,1.95,4.19c1.47,2.66,3.23,4.95,4.69,7.77.78-1,1.88.22,3.12,1.29.19.19.19.09.27.11a.61.61,0,0,0,.18,0,.73.73,0,0,0,.37-.29,5.71,5.71,0,0,0,.76-2.2,5.11,5.11,0,0,1,.53,1.25c.13.45.22.89.34,1.33a6.14,6.14,0,0,0,.2.66,3.48,3.48,0,0,0,.35.76,27,27,0,0,0,1.53,2.25c.18.15.3,0,.51-.2.86-2.7,1.5-7.1,2.43-9.36l.08,3.65c.6-2.42,1.12-4.67,1.58-6.77a11.37,11.37,0,0,0,1.31,2.08c.4-1.05.79-2.06,1.17-3-.55.69-1.26.55-1.29-.45a9.41,9.41,0,0,1,1.41-2.66,9.3,9.3,0,0,1,1.66-1.66c1.14-.8,2.3-1.1,2.56-.67.71-1.53,1.38-3.12,2-4.3l.94-1.86.45-.91.22-.44a3.62,3.62,0,0,0,.18-.38c.28.23.24.69.1,1.23s-.38,1.14-.55,1.76a4.44,4.44,0,0,1,.86-2,.52.52,0,0,1,.72,0c.44.26.87.57.89-.75-.5-.07-.73-.84-1-1.13a3.88,3.88,0,0,0,2.22-1,6.57,6.57,0,0,0,1-1,9.74,9.74,0,0,0,.82-1.06l.61,1.15c2.33-1.68,4.3-4.22,7.1-5.45a1.86,1.86,0,0,1-1.37-1.2,1.29,1.29,0,0,1,.19-1.57c.38.54.76,1.09,1.13,1.64.1-1.35-1.23-.28-.61-2.15,1.27-.29,1.54,1.76,1.2,2.6a10.53,10.53,0,0,1,1.07-1.14c.26.53.05.92.23,1.64,0-.33.22-.41.5-.4a.84.84,0,0,1,.19,0l.06.11a2.15,2.15,0,0,1,.1.27c.15.34.13.63.21-.48v.6c.16,0,.32-.19.56-.3a.58.58,0,0,1,.7.05c1.4-1.17,1.24-.66,2.6-1a3,3,0,0,1-.3.93c-.14.32-.32.5-.47.85s-.14.5-.2.77a9.12,9.12,0,0,0-.17.91,10.34,10.34,0,0,0-.07,1.85c.85,1.77,1.43.51,2.44,1.34-1.54.13-1.5,2.66-2.55,1.3.05.76,0,1.38.05,1.94s.05,1.09.07,1.63c.08,1.09.25,2.29.47,4.35.71-.29,1.08-.73,1.54-.38a1.35,1.35,0,0,1-1.67,1.24l-.12-.22c.66,2.42-1.15,4.7-2.91,6.57s-3.51,3.44-2.86,5.69l0-.24c-.07,1.29-.15,2.62-.33,3.94-1.09,1.28-.47-1.45-1.91-.91a5.6,5.6,0,0,1-.55,2.75,4.47,4.47,0,0,1-1.22,1.47c-.46.36-.92.68-1.28,1a.87.87,0,0,0-.27.41,3.19,3.19,0,0,0-.1.62c-.75-.88-1.08-1.34-1.29-1.52s-.32-.08-.54,0a.62.62,0,0,1-.68,0,6.38,6.38,0,0,1-1-2.1l-.51,1c-1.42.19-.53-1.22-.92-1.87-.45.71.2,1.42-.64,1.48a29.75,29.75,0,0,1-3.24-2.25l-.77-.64-.37-.31-.1-.11a2.73,2.73,0,0,1-.34-.44c-.38-.63-.46-1.19.08-1.61a1.8,1.8,0,0,1,1.27-.33,1.65,1.65,0,0,1,.9.3,11.8,11.8,0,0,1-1.56-1.9,1.9,1.9,0,0,1-.46-1.11c.05-.22.4-.23.92.25a8.84,8.84,0,0,0,.63,1.88.86.86,0,0,1,0-.42c.33-.25.66-.48,1-.7A18,18,0,0,1,247,130a44.45,44.45,0,0,1,4.41-1.82c3-1.11,6-2.16,8.44-4.22-.17.56,0,1.12-.52,1.33,1.73.87,4.47-1.69,4.06-2.79.94-.22.6.91,1.36,1.25,1.52.32,2.36-2.9,3.52-1.82.2.17-.16.57-.34.76a2.44,2.44,0,0,1,1.12-.79L258.92,110c-.46.89-1.06,1.81.15,2-1.76,1.35-1.59,3.79-3.38,4.59.84,2-2.87,2.31-1.05,4.21a1.8,1.8,0,0,0-2.76.27,4.8,4.8,0,0,0-1.26,3c-.3-.87-1.41.27-1.89-.89-1,1.13-1.61,2.43-.44,3.24-2.12-.15-2.68,1.23-3.25,2.5s-1.15,2.31-3.1,1.19A40.1,40.1,0,0,1,233.2,140c-.6-1.19.32-1.85,1.21-2.48s1.69-1.33.83-2.45c-1.73,2.07-2.7,4.15-4.36,5.71l-7.11,6.7,6.69,2.68a19.27,19.27,0,0,1,3.72,2c1,.89-1.18.74-1.81.91.61.17,1.19.36,1.77.54l.42.15.11,0h.11l.3.07a9,9,0,0,1,.91.27,3.78,3.78,0,0,0,2.39,0l.64-.15c-.34.16-.84.33-1.22.46l-.06,0h0c.34,0,0,.29,1.74-.52l-.77.21a19.15,19.15,0,0,1,4.39-1.76c1.81-.54,3.9-1.06,4.78-1.39a19.43,19.43,0,0,0-2.89,1.15,2.29,2.29,0,0,0-.24.15c-.13.09-.24.18-.35.27l-.61.51a5.06,5.06,0,0,1-1.58,1,32.31,32.31,0,0,1-3.6,1,9.73,9.73,0,0,0,2.52-.45,5.27,5.27,0,0,1-2.72.8,4.09,4.09,0,0,0,1.53.29c.51,0,.9.16.53.68-.82,0-1-.14-2-.12a2.93,2.93,0,0,1,1.63.6c.27.3.2.74-.48,1.09-.37-.13-1-.16-.8-.36-.39.59,0,1.41-.2,2.41a3.13,3.13,0,0,1-.57,1.51,5.35,5.35,0,0,1-2,1.52c-.87-2.66-1.51.16-3.11-1.42-.35.59-.68,1.18-1.07,1.77l1.31.33c-1.37,1.08-1.55,3.32-3.22,3.72l.46-1.55-2.35,2.42,2-.52c-.69,2,1.93,2.09-.32,3.09.24-.48-1.41,1.11-3,.68h0c-.24,1.12-.46,2.29-1.85,2.73-.73-.32-1.39-2.07-1.88-2.28.54,2-3,3.28-2.38,5.57a2.61,2.61,0,0,0-1.11-1.55l.51,1.63c-1,.26-1.22.18-1.79-.57-2,1.73,2.6,1.33-.4,2.79.08-.26-.17-.33,0-.87a9.26,9.26,0,0,0-1.66,1.65,21.3,21.3,0,0,0-1.2,2,15.4,15.4,0,0,1-2.47,3.73c-2.43-.4,1-2.51-1.2-2.67-.31.59-.59,1.21-.85,1.85l-2.47,6.08,5,1.1a15.09,15.09,0,0,0,7-.27c2.09-.51,3.87-1.19,5.66-1.44l-.82,0c-.11-1.62.69-1.42,1.77-1.12s2.42.69,3.1-.37c-.38.39,0,1.88,0,1.5a9.24,9.24,0,0,0,3.86-1.85c1.27-.93,2.64-2.07,4.27-3.33l-.13.95c1.71.05,4-1.2,5.63-1.57.13-1,1.06-1.22,0-2.07a5.79,5.79,0,0,0,4.15-.08,11.46,11.46,0,0,0,3-2.17c1.87-1.67,3.54-3.46,6.48-2.77-.49.26-.85,1.23-.46,1,1.06-.81,2.12-1.63,3.15-2.48-.92-1.08-.85-.5-2.07-1.07a3.26,3.26,0,0,1,1.58-2.49c-1.12,1.63,1,2,2.09,2.28-.31-.31-.3-.85-.56-1.2,3,1.2-1-2.59,2.2-2.48l.22.71c.73-.83,1.09-2.14,2.17-2.5,1.2,1.17-.6,1.19,0,2.38,1.34-.86,1.21-4.15,3.23-3.5-.36.72-1.18,1.22-1.55,1.93,2.3.87,2.21.34,3.36,0l-.12,0,2.76-.63-.86-.09c-.43-4.58,3.07-2.76,3.89-6.48-.82,3.56.43,1.5,1.22,3.15.85.06,2,0,2.06.58.29-1.91,2.41-.18,2.76-2.95.38.44,1.17-.7,1.73.69,1.14-1.29-.89-.64-1.17-1.33.52-1.51,2.08-1.85,3.72-2.34s3.36-1.15,4.05-3.34c1.91-2.74,1.22-4.66,2.94-7.18,1.34.17.63,2.19.63,2.19a4.2,4.2,0,0,0,3.43-2.52c.07.59.58.74,1.34,1,.85-.86-.67-2.17,1.1-2.46a8.28,8.28,0,0,1,.49,2.59c.8-1.3,1.23-3,2-4.33.94.56.28,1.76.28,2.6,1-1.37,2.75-3.42,2.12-5l-1.18.21c.41-.44,1.12.88,1,1.39-.3,1.88-1.93.85-2.36.44l.57-1c-2.95-2-2.91,3-4.69,4.15l-.84-2.51-.43,2.95c-.75-.25-1.84-1.18-1.25-2.09-1.93-.09-.52,1.5-2.36,1.16-.24-.09-.27-.22-.22-.38l-.72,1.46c-.08-.59-1.24-1.27-.31-1.51-2.91.39-2.27,4-4.17,3l.09-.25c-2.44,2.77.78,1.69-.19,5l-4.08-2.68.75,1.71c-.35.15-1,.45-1.33-.23-.44,1.81.64.52.64,2-2.4-.37-3.69,3.39-5.62,1.16.22,1.52,2,0,.94,1.82-2.16-2.35-1.55,1.68-3.72,1.32-.44-1.64,1.32-1.73-.83-2.09.62,2.84-3,1.15-3.88,2.31,1.08,1.92-2.09,2.31-3.71,4.1-.23-.68-4.36,1.11-6.6,1.46l-.12-.36c.71,2.15-1.45,2.81-2.65,4a2.53,2.53,0,0,1-.07-2.71l-1.32.71a2.38,2.38,0,0,1-1,2l-.43-1.63c-1.72,1-2.71,3.55-5.5,3.72.53,1.45,3.75,2.93,1.71,5.06-.46-.7-1.17-1.94-.67-2.55-.16.2-.46,1-1,.87l.38-1.73c-1.33,0-.05,1.31-1,1.61-.5-1.08-1-.47-1.28-1.37.17-.21,1,.09,1.08-.49a4.07,4.07,0,0,1-3.27-.44c.37.57.68,1.44,0,1.91-1.78.93-1.22-1-2.53-1.07-.1.95-1.61.7-.92,2.32-.54.24-1-.47-1.37-.82-.62,1.17-4.34,2.14-2.52,3.41h.29c0,.05-.08.08-.12.14h0c-2.45,3-6.94,1.8-9.78,3.73l-.21-.55c-1.62,1.35-3.88,1.78-4.91,3.3-.58.13-1.49-.81-1.38-1.55a9.67,9.67,0,0,1-1.38.78,2.16,2.16,0,0,1-1.83-.45c1.24-1-.37-.89,1.24-.74a9.94,9.94,0,0,1-1.57-.77c-.4-.16-.77,0-1.7.52a1.27,1.27,0,0,0,.17-1.47l2.59,7.43a1.91,1.91,0,0,0,.9-1.37l-1.59.45a6.21,6.21,0,0,1,1.49-2.18c.43.51.89,1,1.36,1.53a2.94,2.94,0,0,0,1.87-1.71,16.6,16.6,0,0,0,.75-2.5,4.36,4.36,0,0,1,1-2.19,2.53,2.53,0,0,1,2.54-.55c-.09-.86-.65-.69-1.24-.53s-1.18.34-1.41-.57a5,5,0,0,1,3-.52,6.72,6.72,0,0,0,2.2,0c2.61-.74-.1-3.74,2.48-4.85a2.28,2.28,0,0,1-1-3.41c1.65-1,3.7.86,3.11,2.06-.32.33-.63.3-.77.1-.32.59-.75,1.33.32,1.46l-.26-.71c1.2,0,3.21-1.73,3.46-.44.72-1.46-.26-1.29-1.32-.91,2.58-.76,3-2.42,5.5-3.61-.57,0-1.41-.42-1.09-.68,1.76-.9,1.85-1.51,1.72-2s-.55-1,.56-2.24a1.64,1.64,0,0,1,1.79.44c.31.25.61.15,1.51-1.45,1.1-.63,1.65-.53,1.86-.1a3.26,3.26,0,0,1,0,1.75,6.89,6.89,0,0,1,1.53-2.26,14,14,0,0,1,1.88-1.81c.68-.56,1.4-1.09,2.06-1.61a8.93,8.93,0,0,0,.9-.75,5.39,5.39,0,0,0,.61-.71l-.15.9-.32.92a8.14,8.14,0,0,1,.33-.79c.12-.24.18-.48.29-.7.21-.46.44-.88.68-1.32-.72.31-1.44.58-2.14.84.81-.92,1.28-1.74,1.95-1.71-.26-.51-1.06-.31-1.83-.25s-1.52,0-1.76-.81a4.53,4.53,0,0,0,1.3-2.11,3.19,3.19,0,0,1,2.07-1.86c-1.33,1.89-.7,1.69.1,1.41s1.82-.71,1.14,1a5.35,5.35,0,0,1,1.26-2.46c.33-.2.41,0,.41.29a5.33,5.33,0,0,0,1.49-2.2c.07-.43-.22-.57-.57-.68-.71-.24-1.71-.33-.74-2.32a4.54,4.54,0,0,0,1.92-.91c.49-.37.83-.74.7-.84-.12.42-.75.75-1.52,1a7.38,7.38,0,0,1-2.51.34c.88-1.41-.21-1.49-.93-1.68a5.83,5.83,0,0,1-1.49.15l.81.21-.32.7a4.08,4.08,0,0,1-1.51.25,37.74,37.74,0,0,1-4.75.5c1.06-.83,3.13-.52,2.86-.92-3,.94-3.48.37-4.54-.22a6.55,6.55,0,0,0-1.86-.79,8,8,0,0,0-1.27-.17,5.56,5.56,0,0,0-1.41,0c-.53-.44-.24-.94,0-1.34s.55-.79,0-1.19H242a5,5,0,0,1-.62-.1,4,4,0,0,1-1-.33l-.2-.1c-.05,0-.05,0-.08-.08l-.13-.18a3.75,3.75,0,0,1-.21-.4c-.25-.56-.43-1.13-1.46-1.07-.3,1.45,0,1.28-1.89,1.73a19.54,19.54,0,0,0,3.24.64,21.11,21.11,0,0,1-2.79.89,3.44,3.44,0,0,0,1.53.36,4.69,4.69,0,0,1,.7.06,2.09,2.09,0,0,1,.73.3l-.67.13a2.78,2.78,0,0,0-.35.14.8.8,0,0,0-.34.23c-.13.17-.08.42-.09,1.07-.2-1.11-.76-1.27-1.47-1.31s-1.53,0-2.05-.46l-.2,4.34a1.74,1.74,0,0,1,.87-.08l1.66,3.13c1.73,0,2.7-1.14,3.66-2.38a23.66,23.66,0,0,1,1.56-1.86,6.91,6.91,0,0,1,2.23-1.49c-.46.07-.91.15-1.38.21-.36-1.46,1.86-1.54,2.54-2.74.61,1,1.5.89,2.38,1.14-.29-.33.3-.75.81-1.35a2,2,0,0,0,.31-2.44c.77,0,1.57.08,2.34.09,2.84-1.62.46-4.89,2.84-6.63.25,1.55,1.84,1.19,1,3.27.76-.69,1.55-1.2,1-1.79.48.05.7-.72,1-1.5s.56-1.56,1.29-1.51c-.09-.67-.9-1.59-.1-2.36a.9.9,0,0,1,.44.39c-.43-.4.55-1.83-1.08-2a4.08,4.08,0,0,0,2.91-1,9.9,9.9,0,0,0,2-2.36,21.49,21.49,0,0,1,1.78-2.43,4,4,0,0,1,2.45-1.3c.68-1.52,1.42-3.29,2.1-4.71l4.72-10-9.3,4.6c-.57.29-1,.51-1.46.7,0-.37-.21-.55.16-.57-2.83-.06-.24,3.76-3.46,3.7-2.12-1.22,1.09-1.54-.06-1.87-1.81-3.47-3.14,1.81-5.84.43l.37-.39c-1.91-.68-2.93,2.74-5.36,3.39a.93.93,0,0,0-.2-.55c-.86,2.47-3.63,4.27-5.67,5.67.14-1.7.72-1.16-.27-2.43-.92.6,1.21,2.2-.63,3.39-.48-.26-1.15-.42-1.8-.69a8.18,8.18,0,0,1-.95-.52,2.71,2.71,0,0,1-.91-.81l2.05-.9a1.58,1.58,0,0,0-1.14-.52,1.12,1.12,0,0,0-.46.14l-.22.14c-.11.06-.22.14-.33.21-.87.6-1.55,1.36-2.39,1.5l-.33-.88a5.79,5.79,0,0,0-3.26,3.1,7.85,7.85,0,0,1-2.51,3.1c.32,0,.64,0,1,.07.31,1.23-.28,1.32-1,1.52s-1.45.4-1.1,1.54c-.86,0-1.75,0-2.59.08a8.1,8.1,0,0,0,1.33,4.08,14.3,14.3,0,0,0,3,3,7.1,7.1,0,0,1-4.34-3,10.75,10.75,0,0,1-1.26-2.87,6.7,6.7,0,0,0,.19,2.88,4.24,4.24,0,0,0,2.48,2.89c-.57-.44-1.51-1.06-1.34-1.66,2.58,1.62,5.08,2.74,7.16,4.57-1.17.51-1.47,1.12-1.15,1.88a9.23,9.23,0,0,0,2.17,2.53l.73.68.5.5a7.21,7.21,0,0,1,.88,1.05,3.07,3.07,0,0,1,.55,2.53A8.38,8.38,0,0,1,240,149.9c.44.34.85.72,1.37,1.19s1.33,1.15,2,1.69a14.67,14.67,0,0,0,4.94,2.55,11.08,11.08,0,0,0,5.94,0c-.88-.72-1.11-1.14-1.08-1.39s.37-.32.76-.43a2.11,2.11,0,0,0,1.1-.63c.25-.36.29-.88-.09-1.72,1.33-.79,1.8-1.08,2-.93a14,14,0,0,0,2.57-.46c.92-.27,1.71-.5,2.49-.75.74,0,.65.39.43.85s-.61,1-.28,1.25c1.41-1.09,1.86-1.09,2.38-.92a2.12,2.12,0,0,0,2.1-.06c-1.29-.52-.64-2.09.82-3.29-1,.38-1.93.72-2.92,1,.65-2.32,1.7-2.59,2.82-2.86a2.73,2.73,0,0,0,2.49-2.85l.32,1.7c.27-1.07,1.24-2.73,1.88-4.56a9.84,9.84,0,0,0,.57-2.77A4.35,4.35,0,0,0,272,134c.54-.15,1.65-.21,1.54.72,1.15-2.19,1.39-5,1.47-7.65s.2-5,1.4-6.67l.83.52c-.11-1-1.39-1.82-.35-2.8.36.11.84.49.95.08-.25-.54-1.25-2.57-.66-3.7l.92,1.11a7.3,7.3,0,0,0-.58-6c-.43-.86-.88-1.67-1.35-2.5a10.79,10.79,0,0,1-1.07-2.69,2.16,2.16,0,0,0,.88-.27,1.67,1.67,0,0,0,.69-.66,5.57,5.57,0,0,0,.72-2.41,13.53,13.53,0,0,0-.77-5.62l.36-.11a11.59,11.59,0,0,0-3.89-4.73,10.91,10.91,0,0,0-2.47-1.32,9.73,9.73,0,0,0-1.3-.39,7.41,7.41,0,0,0-1.31-.26c-3.56-.45-7,.72-10.23,2.25a13.41,13.41,0,0,0-2-.3,6.3,6.3,0,0,0-1.92.11,16.2,16.2,0,0,0-4.22,1.46c-2.93,1.32-5.61,3.33-8.22,4.41.92-.16,1.21,1.68.71,2.48-.63.19-1,1.09-1.28,1.69s-.65.93-1.43,0l.33-.27a2.58,2.58,0,0,0-2.87.38,20.21,20.21,0,0,0-2.1,2.25l2.19,2.31-.61.08a2.37,2.37,0,0,1-.41,0,3.83,3.83,0,0,0-.64,0,1.38,1.38,0,0,0-.79.22c-.3.21-.43.73-.6,1.4a5.63,5.63,0,0,1-.63,1.7c-.23.25-.44-.06-.49-1.76a13.6,13.6,0,0,1-.28,1.79c-.12.56-.25,1.12-.44,2.15l.35-3.53c-.11-.18-.15-.38-.22-.34s-.09.1-.16.28l-.13.36c-.05.14-.1.37-.21.41.29-1.08.55-2.17.79-3.31,0-.14-.83,3.14-1.94,6.29s-2.41,6.18-2.84,5.87c.7-2.17,1.44-4.3,2.2-6.4-.4-.43-.06-2.15.12-3s.11-1-1.53,0a17.38,17.38,0,0,1,1.66-1.53c0-.24.58-1.09.57-1.26s-.16-.08-.61.14a19.78,19.78,0,0,0-2.37,1.41c1.54-1,1.64-1.24,1.23-1.35a5.44,5.44,0,0,1-1.7-.58c.67-.11,1.34-.24,2-.38a6.44,6.44,0,0,1-2.47-.18,1.09,1.09,0,0,1-.71-1.17c.38-.3,1.56-.12.94.19.67-.41.32-.59,0-.89s-.54-.69.21-1.14a7.32,7.32,0,0,0,.8.78c.28-.39.29-.62.13-.9s-.21-.3-.35-.5a4.43,4.43,0,0,1-.42-.87c0-1.32,2.2-2.62,3.59-1.94-.63-.71-1.06-2.24-.07-2.83a1.07,1.07,0,0,1,.62,1,4.61,4.61,0,0,0,2-3.07c.29-1,.59-2,1.9-2.24a1.44,1.44,0,0,0,1,.37c-1.59,1.79-2.82,3.26-2.82,3,1.22.94,2.6-.36,3.34,2.14,0-1.88-.26-5.54,1.55-6.47a1.89,1.89,0,0,1,.57.17v.26a1.26,1.26,0,0,0,.6-1,4.37,4.37,0,0,0,1.38-.83c1.09.7,2-1.14,2.71-1.78-1.27-1.11-.19-1.83-2-2,.19,0,0,.27-.39.79-.06.14-.17.28-.16.41l-.06-.15c-.4.5-.94,1.14-1.56,1.84-.11-1.13-.09-2.23,1.34-2.36-.44-1.11-.85-2.29-1-2.88,2.62.65,5.36-.23,6.61.56,1.46-2.75,4.65-5.23,4-8.86.37-.88,1.35,0,1.92.19-.17.56-.64.91-.53,1.43.73-1.75,3.61-3.58,2.49-5.52,2.3-.66.39,2.34,2.43.13l.13.77c6.59-1,3.88-10.11,11.31-11.07l13.36-1.73-16.77-4.6-.45-.12a2.88,2.88,0,0,1,.45.13l10.72,5.45-7.32.87a.8.8,0,0,1-.63-.15l.37-.18,15.09-7L265,53.59c-3.84.3-7.36,2-10.85,3.63s-7,3.13-11,3.13c-2.23.23-1.89,1.64-2.65,3.14L239.38,62l-1.19,2.81c-2.21,2.67-6.86-1.76-9.23,2.62l1,.86c-1.39.42-3.73,2.67-4.15,1.32,0,.26.16,1.34-.63,1l-.47-.83-2.37,3.08c-2.73.68-1.39-3.53-5-1.78-1.14,1-2.36,4.49-1.56,4.76a1.76,1.76,0,0,1,2.13.58L217,77.54c1.15,2.56,1.71,5.52,5.46,5.66l1.13-2.57,1.28.84-1.61,1c1.55.61,1.6-.69,1.9-1.74a2.3,2.3,0,0,0,1.53.87l.69-3.38c.74.85.14,2.38,1.72,2.23.34-1.57-2-1.71-.87-3.23,1.54.64,1.73,1.71,2.36.17a1.26,1.26,0,0,1,.15,1.6c.6-1.28,2.47-1.65,2.33-3.23,1.68.9,3.24-2,4.27.42a5.52,5.52,0,0,1,1.79-3.24c-.39,3.64,3.57-1.43,4.51,1.89.1-3.18,4.06-3.14,5.72-5.53,0,.26-.12.79-.37.74,1.36-.31,2.06.35,3.08.52-.71-2.26,1.1-3.55,1.68-5.32,2.39,1.51,0,3,1.3,4.79-.77-1.75,2.06-2.82,1-4.1,1.71.87,1.29.25,2.58,1.85-.79-2.84,1-.88,1.36-2.93,2.26.74,1.37,2.42,3,.91C264.15,66.27,262.77,67.84,262.77,67.84ZM230.44,83l0,0,.65-.86Zm-2.81,3.35a15.62,15.62,0,0,0,1.27-1.41c.54.26.89.77.59,1.08C229.35,85.55,228.42,86.12,227.63,86.31Zm14.62,1.06c-.26.63-.65.56-1,.39a8.44,8.44,0,0,0,.61-1,1.86,1.86,0,0,0-.1-.2A3,3,0,0,1,242.25,87.37Z"/><path class="cls-1" d="M241.43,85c0-.1,0-.18.1-.28a2.35,2.35,0,0,0-.54,0l.22.52Z"/><path class="cls-1" d="M238,180.19h-.1a.66.66,0,0,1,.27.15A1.38,1.38,0,0,1,238,180.19Z"/><polygon class="cls-1" points="233.29 135.06 233.28 134.22 232.91 135.65 233.29 135.06"/><path class="cls-1" d="M261.44,175.28a.87.87,0,0,0,.48.24A1.05,1.05,0,0,0,261.44,175.28Z"/><path class="cls-1" d="M270.5,170.64l1.55-.22A6.74,6.74,0,0,0,270.5,170.64Z"/><path class="cls-1" d="M277.65,167.3a3.47,3.47,0,0,0-.26-.69s0,0,0,0Z"/><path class="cls-1" d="M237.74,154.4a.63.63,0,0,0-.19,0C236.92,154.64,237.22,154.57,237.74,154.4Z"/><path class="cls-1" d="M226.86,171.45a6.27,6.27,0,0,1,.42-1.37C226.69,170.4,226.27,170.69,226.86,171.45Z"/><path class="cls-1" d="M248.72,123.14s0,0,0,0l.16-.16Z"/><path class="cls-1" d="M228.63,169a1.86,1.86,0,0,0-1.35,1.06A2.72,2.72,0,0,0,228.63,169Z"/><path class="cls-1" d="M305.82,148.15l.34-.19a.57.57,0,0,1-.13-.24Z"/><path class="cls-1" d="M306,147.72l.2-.42C306.08,147.43,306,147.54,306,147.72Z"/><path class="cls-1" d="M306.64,146.42l-.41.88C306.47,147.11,306.8,146.92,306.64,146.42Z"/><path class="cls-1" d="M297.14,153.93l.27.57A1.74,1.74,0,0,0,297.14,153.93Z"/><path class="cls-1" d="M294.71,156c.68-.33,2.29-.08,2.91-1l-.21-.44C297.55,155.52,294.67,154.71,294.71,156Z"/><path class="cls-1" d="M279.71,157.19c.81-.32,1.61-.69,2.41-1-.74-.29-1.71-.68-.83-1.47C277.53,154.89,282.66,155.54,279.71,157.19Z"/><path class="cls-1" d="M272.48,160.69c1-1-.51-.8-.65-1.15C271.41,160.5,271.3,160.74,272.48,160.69Z"/><path class="cls-1" d="M221.28,184.75l-.12-1.53C220.4,183.56,221.23,183.81,221.28,184.75Z"/><path class="cls-1" d="M214,182.09c-.49.12-1,.22-1.48.38l.85,1.27A15.59,15.59,0,0,1,214,182.09Z"/><polygon class="cls-1" points="226.4 184.42 226.26 184.87 227.01 183.35 226.4 184.42"/><path class="cls-1" d="M267.25,123.84l-1.74-.82C265.34,123.84,267,125.23,267.25,123.84Z"/><path class="cls-1" d="M229.3,125.24a3,3,0,0,0-2,.57,1.33,1.33,0,0,0-.62,1.52C227.51,126.29,229.08,125.76,229.3,125.24Z"/><path class="cls-1" d="M234.52,104.77a6.54,6.54,0,0,0-.28-.66c0,.24,0,.49.06.77Z"/><path class="cls-1" d="M279.76,476.9c.56-.1,1.45-.85.92-1.28l-1.91.71Z"/><path class="cls-1" d="M280.51,471.18a5.28,5.28,0,0,0-4.41,1.41c2-.37,1.46.22,3.81-.31.54.42.06,1.3-.61,1.61.55-.09.18,1.1,1.41.71.83-1.57.33-2.48-1.34-2.75C279.61,471.41,280.17,471.33,280.51,471.18Z"/><path class="cls-1" d="M259.59,412.6l-.13.44A.73.73,0,0,0,259.59,412.6Z"/><path class="cls-1" d="M253.78,374.54a.48.48,0,0,0,.48.38C254.09,374.66,253.94,374.46,253.78,374.54Z"/><path class="cls-1" d="M255.2,367.76a3.7,3.7,0,0,0-.09.4C255.27,368,255.36,367.83,255.2,367.76Z"/><path class="cls-1" d="M259.59,412.6l.38-1.15C259.32,411.53,259.62,412.07,259.59,412.6Z"/><path class="cls-1" d="M271.89,466.09a1.38,1.38,0,0,0,.73.25,4.09,4.09,0,0,1-.44-.37Z"/><path class="cls-1" d="M265.81,428.37l.1.3a8,8,0,0,0,.84,0Z"/><path class="cls-1" d="M270.47,440.37c-.05-.29-1.65.24-2.38.4a1.71,1.71,0,0,1,1.32.16A5.55,5.55,0,0,0,270.47,440.37Z"/><path class="cls-1" d="M276.44,460.18l.38.21C276.71,460.35,276.57,460.24,276.44,460.18Z"/><path class="cls-1" d="M263.48,419.44a3.06,3.06,0,0,0,.55-.28A1.68,1.68,0,0,0,263.48,419.44Z"/><path class="cls-1" d="M245.5,53.37l.3,0C245.64,53.3,245.52,53.27,245.5,53.37Z"/><path class="cls-1" d="M255.47,39.09l.07.22c.31.06.62.12.93.15Z"/><path class="cls-1" d="M256.15,355.62a.17.17,0,0,0,0,.06C256.34,356,256.29,355.8,256.15,355.62Z"/><path class="cls-1" d="M250.7,244.86c-1.5,1.27-1.95-2-3.61-.14C247.75,244.55,249.72,246.44,250.7,244.86Z"/><path class="cls-1" d="M271.91,465.67a2.87,2.87,0,0,1-.28-.48A.8.8,0,0,0,271.91,465.67Z"/><path class="cls-1" d="M247.09,244.72h0l-.15.2Z"/><path class="cls-1" d="M253.26,328a2.18,2.18,0,0,0-.72.32A1.67,1.67,0,0,0,253.26,328Z"/><path class="cls-1" d="M252.18,348.85l.19-.52A1,1,0,0,0,252.18,348.85Z"/><path class="cls-1" d="M250.37,317.37c.11-.29.34-.39.1-.77a.63.63,0,0,0-.2.13C250.5,316.86,250.62,317,250.37,317.37Z"/><path class="cls-1" d="M249.86,306.14a2.37,2.37,0,0,0-.33.22l.1.35Z"/><path class="cls-1" d="M243,87.69a6.86,6.86,0,0,1,1.56-.39C243.38,87.37,243.1,85.68,243,87.69Z"/><path class="cls-1" d="M272.71,465.62c-.4.15-.63.16-.8.05a2.52,2.52,0,0,0,.27.3A1.22,1.22,0,0,0,272.71,465.62Z"/><path class="cls-1" d="M237.05,317.52l.17-1.81A6.09,6.09,0,0,0,237.05,317.52Z"/><path class="cls-1" d="M238.19,168.74l-.19-.42A.36.36,0,0,0,238.19,168.74Z"/><path class="cls-1" d="M236.73,310.39a3.07,3.07,0,0,0,1.11-1.06,1.39,1.39,0,0,0-.44-.19Z"/><path class="cls-1" d="M244.6,87.3h0Z"/><path class="cls-1" d="M241.66,75.14c-.2,1.71,2.09,1,3.32,1.48.45,2.1-1.71.8-2.89,1.39.47,1.32,2.41,2.48,2.24,3.42-.37,0-.52.21-1,0,1.64,1.5-.27,4,1.8,5.75a1.55,1.55,0,0,1-.57.16,11,11,0,0,1,3.06,0c0,.77,1.27,1.54-.2,1.7.08-.46-.5-.55-.93-.81l.56.85c-2.14.55-.63-1.15-2.16-1.28.54,1.62,2.09,3.58,1.4,4.73-2.05.08-.44-2.86-2.38-1.41l.94-1.79c-3.33,1.14.32-1.11-3.22-.1-.81,2.4.79,2.82,0,5.21,1.08.64,1.68,0,2.77.59,1.75,3.62-5.32,2.32-2.82,5.08,1.3.76,3.85,1.22,2.35,2.92l-2.25-.79c-.41,2.34,3.2,1.6,1.46,4-.87-.51-.61-1.92-.91-1.58-1.94,1.46,1.21,1.23,1.11,2.46l-2,.1c.11,2.55,1.4,5.43,1.58,8.24-.59-.2-1.2-.72-1.87-.11.78,3.58-.75,7.49-2.19,10.81l1.67,1.4c0,.3-.83.51-1.15.16-.76,1.29,1.11.14,1.76.82.08.76-1.07.93-1.57.42,1.36,2.43,2.83,6.84.8,9.19l-.49-.51c-.82,1.88,3.48,2.37,1.74,4l-.29-.36c-1,4.12.38,8.79-2.43,11.83,2.51.72-1.32,4.07,2.2,4.5-1.86,2.29-2.46,1.58-3.8,4.88-.2.88,2.14,1.42,2.47,2.54l-1.85-.05,1.89,1.58-2.24.71.43,1.06a1.47,1.47,0,0,1,1.4-.77c.77,1.66-1.44,3.9-2.39,3.9l1.43,3.89c-.74-.11-1-.76-1.43-1.28,1.81,2.11-2,.3-.3,2.23.43-.23,1.09.18,1.47.23-1.16.9-1.24,3-.83,4.62l-1.26-.35c-.44,2.84.44,6,.33,9.21.62-1.13,2.82-.81,3,.13l-2,.32c1.19.64.76-.95,2.2.33-.25,1.18-2.24.74-2.86,0l.64,1.46c-.58.07-.88-.27-1.62-.38,1.2.62-2,2.45.06,3.36l-.59.07c-.09,3.19.52,4.65.59,7.26,1.68.08,1.29,1.09,2.64,1.89-.56,1.9-1.92,4-1.82,6.3.81,1.62,1.42.49,2.41,1.23-1.54.1-1.43,2.4-2.51,1.19a20.42,20.42,0,0,0,1.45,7c.64-.37.91-.79,1.44-.57.25.64-.66,1.44-1.39,1.34l-.16-.17c2.28,3.93-4.53,9-1.35,12.16l-.16-.18,1.66,3.24c-.28,1.49-1.15-.89-2.11.21,2.57,3.49-.35,5.52,1.37,8.39-4.52,2.25.35,7.9-2.52,10.93l1.07-.19c1.06.77-.6.95-.83,1.52.82-.09.94-.85,1.53-.37,1.4,6.55-1.4,13.59-2.18,20.37-.22,2.48,5.56,1.27,3.09,4.44l-2-.83c2.51,4.92.15,10.19,2.36,15-.47-.27-1.06-.26-1.07-.74-1.4,1.08.06,3.81,1.24,3.79-.11.76-1.06.21-1.64.7-.81,1.06,1.93,2.52.52,3.13-.23.1-.48-.28-.59-.46.72.64-.07,3.14,1.57,2.43-.73,1.86.86,3.47-.07,5,1.9.87-.75,3.16,1.89,3.35-2.71,0-2,3.3-.71,4.4-.84-.35-.8,1-2,.64.1,1.32.66,2.5,2,2.21-3.13,2.58,2.84,4.75-1.25,6.32a65.84,65.84,0,0,1,3.68,10.91c-2.71,0-.48-3.88-3.31-3.57,1.28,3.29,3.74,5.08,3.31,8.44-.31.88-1.21-.41-1.69-.68,1.33,3.28.19,6.5,1.91,9.37-.26,0-.56-.29-.79-.58.14.58-.28,1.4.94,1.24l-.38-.55c1.71-1.07,3.9,2,4.85,2.06-3.59-.71-.65,3-5.22,1.8a1.73,1.73,0,0,0,1.7.64c-.2.59-.66.82-1.64.31.85,2.05,2.09,1.19,2.24,3.09-.59,0-.86-.31-1.57-.45,1.25.87,2.5,1.72,2.15,3.38-.37-.07-.82.17-.85-.32.44,2.76,3.5,4.39,2.76,7.53-2.68-.61-.73,1.12-2.94,1.53l.85,1.56,1-.78c.12,1.43,1.89,2.49,1.3,3.8l-1-.94c.25.87.48,1.74.76,2.61l.64-1.61c1.32,1.29,2.79-.51,2.42,1.45-.27-.35.17,1.41-1,2.33h0c.8.61,1.65,1.22,1.24,2.35-.67.37-2.48.12-2.93.37,1.95.43,1,3.26,3.07,3.83a3.34,3.34,0,0,0-1.89.07l1.6.35c-.38.73-.59.87-1.54.9.05,2,2.71-1.06,1.88,1.46-.15-.16-.36,0-.65-.38-.24,2.45,1.7,4.37,1.32,6.66-2.11,1-.86-1.8-2.61-.74.92,3.07,3.89,5.95,3.93,9.05l.14-.61c3.21-.23-1.14,2.56.71,3.76-.32-.32-1.84-.11-1.47-.09,0,2.16,1.73,4,3.41,6.88l-.88-.19c-.46,1.38.37,3.26.37,4.65.89.18,1,.95,2,.2-1.72,2.58-.6,4.34.59,6s2.59,3.12,1.28,5.45c-.14-.41-1-.78-.89-.45l1.65,2.76c1.25-.67.68-.65,1.51-1.61a2.49,2.49,0,0,1,2,1.48c-1.28-1-2.11.71-2.66,1.54.37-.23.88-.18,1.27-.37-1.8,2.33,2.73-.64,1.9,2l-.72.13c.63.65,1.8,1,1.9,2-1.38.89-1-.58-2.26-.19.51,1.16,3.69,1.28,2.58,2.9-.6-.34-.87-1.06-1.47-1.41-1.34,1.82-.84,1.79-.81,2.77v-.1l-.06,2.32.29-.7c4.46-.05,1.94,2.7,5.28,3.61-3.19-.9-1.52.26-3.25.82-.26.69-.46,1.68-1,1.66,1.74.36-.4,2,2.11,2.5-.51.29.37,1-1.06,1.41,1,1,.79-.7,1.52-.9,2.65,1-.13,5.35,3.6,6.8a7.62,7.62,0,0,0,3.05,1.49,7.55,7.55,0,0,1,3,1.3c-.45,1.12-2.19.45-2.19.45a2.79,2.79,0,0,0,1.6,3c-.56,0-.82.46-1.21,1.1.59.77,2.16-.48,2,1a9.13,9.13,0,0,1-2.51.32c1,.73,2.48,1.18,3.55,1.9-.71.78-1.72.19-2.48.15,1.05.93,2.61,2.45,4.18,1.95l.05-1c.32.36-1.06.93-1.5.78-1.68-.3-.38-1.66.09-2l.76.5c2.46-2.44-2.14-2.56-2.77-4.14l2.5-.62-2.62-.48c.39-.63,1.5-1.51,2.21-1,.52-1.62-1.28-.49-.55-2a.32.32,0,0,1,.4-.17l-1.21-.65c.57,0,1.47-1,1.49-.21.14-1.23-.67-1.72-1.35-2.12s-1.2-.71-.52-1.48l.21.09c-2-2.18-1.75.58-4.61-.41l3.44-3.27-1.77.54c-.07-.3-.2-.88.51-1.09-1.61-.45-.64.51-2,.43.45-1-.15-1.78-.55-2.53s-.53-1.45.74-2.18c-1.47.09-.46,1.68-1.93.67,2.71-1.65-1.17-1.4-.35-3.16,1.65-.26,1.33,1.19,2.17-.56-2.83.34-.41-2.53-1.31-3.32-1,.39-1.46-.07-1.82-.81a8.75,8.75,0,0,0-1.2-2.49c.72-.15-.05-3.64.12-5.48l.37-.07c-2.2.42-2.41-1.36-3.2-2.44a2.73,2.73,0,0,1,2.59.16l-.36-1.13a2,2,0,0,1-1.69-.95l1.66-.22c-.56-1.47-2.81-2.46-2.37-4.73-1.51.32-3.6,2.8-5.24,1,.77-.31,2.11-.79,2.6-.34-.15-.15-.86-.44-.63-.9l1.6.44c.31-1.07-1.28-.14-1.36-.9,1.15-.31.67-.77,1.6-.92.17.15-.31.76.23.9a3.31,3.31,0,0,1,1.17-2.6c-.63.25-1.54.43-1.85-.12-.49-1.51,1.24-.91,1.58-2-.89-.15-.33-1.35-2-.92-.11-.45.67-.74,1.08-1-1-.59-1.21-3.63-2.8-2.28l-.06.23c-.05,0-.06-.07-.11-.11h0c-2.35-2.22-.3-5.72-1.65-8.15l.58-.12c-1-1.41-1.12-3.4-2.6-4.28-.09-.47.85-1.31,1.58-1.25-.67-1.11-1.35-1.13-.73-3.05,1.25,1,.82-.58,1,1.1.2-1.66,1.06-2.17-.86-3.55,1.6.3,1.68-1.52,1.12-2.18L256.8,393a5.11,5.11,0,0,1-.34-2.32l2,.07c1.89-3.57-5.07-5.11-1.38-8.18-1.5-.64-.73,1.89-2.45,1.38.06-1.53,2.68-3.48,2.62-3.94.82-2.17-3.15-1.49-2.69-3.72-.67.37-2.52.88-3.41-.64.06-1.53,2.75-2.21,3.41-1.34.1.35-.09.55-.33.57.32.44.71,1,1.39.35l-.73-.1c.61-.83.32-2.87,1.53-2.53-.81-1-1.22-.34-1.49.54.8-2-.31-3,.15-5-.35.35-1.15.74-1.18.42.54-3-1.49-1.12-2-3,1-1.23,2.61.13,1.52-1.75.61-1.28,1.85-.45,2.48,0-1.54-1.66.57-3.44.73-4.48l.66.89a2.53,2.53,0,0,1-.47-1.46l-1.37.67c.2-.58.16-1.05.75-1.09-1-.49-2.32.66-3.7-.36.65-.81-1-2.19.87-2.61-.41,2.38,1.87-.42,2.36,1.51a1.46,1.46,0,0,1-.1-1.4c.2-.1.4.05.52.19,1.49-2.37-2.21-.84-2.36-3.15,1.09.2,2-.71,1.72-1.06.05.93-1.74.59-2.62-.2.71-1.55-.74-1.57-.71-2.36l-.32.92c-1.08-.21-1-1-1.42-2,.82-.15.64.9,1,.5-2-1,1.72-2.74.37-4.26.67-.8,2-.21,2.43-.9-1.49-1.7,1.33-2,.07-3.85-1.4.63-1,.71-2.52-.54l1.21,3.05-2.21-1.86c0,.94,1,1.92.82,2.5-1.22-.87-.86-.8-2-.27,2.06-1.43-1.41-2.47-.07-4.06l3.55-.17c1.42-2.33-2.06-3.87-1.33-6.83l-.57,1c-1.42-.31-.29-1.78-.91-2.69,1.18,0,1.58-.59,2.3-1-.88.09,0-2.13-2.42-2.27l1.5-1.38c.53-2.39-3.49-2.52-3.19-4.81,1.31.62,2.1-.45,3.09,1,0-.75.17-1.44-.65-1.41.72-.48-1.69-2-.6-2.77-.54-.29-1.78-.34-1.72-1.2a1.13,1.13,0,0,1,.58,0c-.58,0-.85-1.29-2.13-.49,3.59-2.49-.58-6.5,2.53-8.66a33.08,33.08,0,0,1-1.05-5.1c.36.08.59,0,.48.27,1-2.11-3.44-1.15-2.3-3.55,1.87-1.27,1.08,1.21,1.78.44,3.88-.46-.63-2.82,1.58-4.48l.25.38c1.28-1.25-1.6-2.9-1.36-4.89a1.15,1.15,0,0,0,.58,0c-2-1.3-2.74-3.84-3.34-5.73,1.54.55.83.85,2.37.44-.24-.84-2.48.32-3-1.37.82-.58,1.52-1.83,3.17-2l.13,1.6c2.12-.87-.13-2.07.22-2.93l.94.09c-.36-2.45-2.72-2.43-2.62-5.08l-.7.29c-2.37-1.4,1.27-1.24-.48-2.65l2.36-.48c-.59-.94-2.34-3.3-2.81-5,1.77.94,2.7,2.92,3.76,4.14,0-.94-.23-3.2-1.4-3.68.23.38.82.85.46,1.23a5,5,0,0,1-2.8-4.52c4.59.26,1.08-4.93,4.63-6.34-1.77-3.31.67-6.61.37-10.48-3.57,1.4-.11-1.13-3.78-.87-.23-.9-.17-1.25.06-1.33l2.18-2.75c1.07-.65.81.86,1.64.77.27-2,1.55-.83,2.52-2.14-1.31.27-1.89-.68-1.39-1.81l-1.68,1.59c-2-2.76,3-2.39,1.13-5.17l1.15.88c-.67-1.43,0-5.26-2.88-6.67.42-.25,1.43-.58,1.69,0,.46-3.41-3.1-7.63-1.27-10.26l.9.26c-.26-.64-1.68-1.12-.76-1.91.37,0,.89.27.95,0-.31-.34-1.55-1.71-1-2.55l1,.74c1.23-3.31-2.38-5.15-3-7.95,2.64.05,3.54-2.56,4-3.85l.37,0c.38-3.87-2-6.63-3-10.25,2.92-2.15,1.39-7.52,3.1-11-.5.54-2.06-.15-2.3-.79.57-.83-1.74-2.39.67-2.18l0,.3c2.39-.55,1.83-2.3,1.94-3.64l-3.16-.34c4.74-3.35-1.35-9.31,2.84-11.07-.75-.88-.69-1.94-1.44-2.81l1.7.12a16.36,16.36,0,0,0,.54-6.44l1.19.65c.19-1.63-4.8-2.3-4.83-3.83l2.56-.33c.09-2.87,2.44-5.65.32-8.6.37.06,1.1.19,1.17.66.15-1.35,2-5.12-1.49-4.83,2.27.1.4-2.94-.51-4.55l1.65.34c-2.06-1.43-2.64-1.51-3.12-3.37.24-.42,1.36-.3.9.25,1-1.39-1.52-1.22-.53-2.92l1,.72c.21-1.47-.36-1.39-1.55-2.29-.61-1,.61-2.78,2.14-2.9-.91-.26-2.09-1.16-1.59-2a1.18,1.18,0,0,1,1.07.43c1.3-2.4-1.69-3.82.06-5.41a1.69,1.69,0,0,0,1-.22,13.11,13.11,0,0,1-.48,3.39c1.53.1,1.91-1.47,4-.06-1.07-1.35-3.44-3.71-2.62-5.21a2.57,2.57,0,0,1,.55-.17l.16.18a.9.9,0,0,0-.18-1,3,3,0,0,0,.55-1.25c1.28-.09.8-1.77.93-2.56-1.69-.06-1.34-1.08-2.8-.21.13-.11.18.17.22.7a.79.79,0,0,0,.15.35l-.15-.06c0,.52,0,1.2,0,2-.81-.69-1.48-1.4-.49-2.21-1.06-.48-2.13-1-2.63-1.3,2.43-.92,3.86-2.91,5.33-3.09-.75-2.49-.18-5.75-3.22-7.52-.35-.72,1-.72,1.49-.94.28.43.2.89.64,1.15-.71-1.44,0-4.1-2.18-4.62,1.13-1.65,2,1.15,1.78-1.27l.65.38c3.92-4.38-5-8.1,0-12.9-.31.33-.46.5-.83.54,2.49-5.74-.73-12.39,3-17.92.8-1.59-.59-1.91-1.56-3l1.84-.17-1.91-1.95c-1.29-2.62,4.88-3.78,2.33-7.19l-1.26.27c.36-1.09-.32-3.62,1.05-3.28-.21-.14-1.22-.5-.54-.87l1,.07-1.32-2.92c.92-2,3.7.75,4.23-2.33-.24-1.19-2.39-3.59-3.06-3.23a1.58,1.58,0,0,1-1.67,1.05l-.37-1.11c-2.76-.51-5.51-1.65-7.73.73l1.5,2-1.41.44.08-1.54c-1.36.72-.3,1.4.4,2.1a2.43,2.43,0,0,0-1.57.59l2.46,2.08c-1.11.09-2.07-1-2.8.09,1.14,1,2.52-.53,3.18.94-1.36.73-2.36.36-1.39,1.5a1.38,1.38,0,0,1-1.43-.64c.76,1,.1,2.44,1.52,3.06-1.66.74.07,3.11-2.55,2.74a4.84,4.84,0,0,1,1.91,2.65c-3-1.85-.5,3.1-3.83,2.35,2.72,1.42.85,4.21,2.22,6.36-.21-.14-.64-.4-.48-.56-.35,1.1-1.24,1.34-1.84,2,2.32.38,2.69,2.18,4,3.26-2.4,1.16-2.67-1.1-4.88-.88,1.9.11,1.66,2.57,3.28,2.26-1.5.92-.77.84-2.76,1.2,2.91.46.4,1,2.11,2.07-1.58,1.39-2.78.13-2,1.89C242.56,76.73,241.66,75.14,241.66,75.14Zm1.82,40.3h0l0-.83C243.42,114.78,243.45,115,243.48,115.44Zm-.2,3.35a8.26,8.26,0,0,0,.17-1.45c.59-.07,1.17.1,1.12.43C244.2,117.56,243.81,118.33,243.28,118.79Zm12.14-6.24c.2.54-.14.7-.49.74a5,5,0,0,0-.14-.93l-.2-.08A3.24,3.24,0,0,1,255.42,112.55Z"/><path class="cls-1" d="M253.28,111.44c0-.08-.1-.12-.11-.23-.15.1-.29.2-.4.29l.51.23Z"/><path class="cls-1" d="M259.44,413.12l0-.08a.71.71,0,0,1-.19.2C259.34,413.18,259.39,413.16,259.44,413.12Z"/><polygon class="cls-1" points="237.5 164.96 237.92 164.97 237.56 164.66 237.5 164.96"/><path class="cls-1" d="M259.06,432.48a.86.86,0,0,0-.33.37A1,1,0,0,0,259.06,432.48Z"/><path class="cls-1" d="M261.45,440.23l-.17,1.29A4.55,4.55,0,0,0,261.45,440.23Z"/><path class="cls-1" d="M263,446.34a4.37,4.37,0,0,0,.72-.16v0Z"/><path class="cls-1" d="M241,350.14a.5.5,0,0,0-.09-.23C240.5,349.38,240.66,349.75,241,350.14Z"/><path class="cls-1" d="M247.9,378.81A4.63,4.63,0,0,1,247,378C246.92,378.52,246.94,378.93,247.9,378.81Z"/><path class="cls-1" d="M237,317.72h0c0-.07,0-.13,0-.2Z"/><path class="cls-1" d="M246.82,376.64A1.19,1.19,0,0,0,247,378,1.76,1.76,0,0,0,246.82,376.64Z"/><path class="cls-1" d="M274.58,471l.1.29a.87.87,0,0,1,.25-.11Z"/><path class="cls-1" d="M274.93,471.22l.35.18C275.2,471.27,275.12,471.17,274.93,471.22Z"/><path class="cls-1" d="M276,471.78l-.74-.38C275.41,471.61,275.52,471.9,276,471.78Z"/><path class="cls-1" d="M271.12,463.4l-.58.21A2.07,2.07,0,0,0,271.12,463.4Z"/><path class="cls-1" d="M269.74,461.26c.17.6-.42,1.95.33,2.51l.47-.16C269.54,463.69,270.93,461.28,269.74,461.26Z"/><path class="cls-1" d="M272,448.67l.44,2c.43-.6,1-1.38,1.57-.62C274.68,447,272.92,451.18,272,448.67Z"/><path class="cls-1" d="M270.44,442.5c.7.89.87-.37,1.23-.46C270.86,441.63,270.65,441.53,270.44,442.5Z"/><path class="cls-1" d="M257.67,398.87l1.53-.19C258.82,397.9,258.62,398.79,257.67,398.87Z"/><polygon class="cls-1" points="248.28 391.6 247.47 392.59 248.93 392.75 248.28 391.6"/><polygon class="cls-1" points="258.22 384.72 258.5 385.05 257.72 383.75 258.22 384.72"/><path class="cls-1" d="M251.42,308.08l-1.88.33C249.91,309,252,309,251.42,308.08Z"/><path class="cls-1" d="M248.47,274.7c.94-.39,1.52-1.34.58-1.9C248.94,273.55,248.22,274.32,248.47,274.7Z"/><polygon class="cls-1" points="252.32 174.44 252.93 175.14 252.44 173.85 252.32 174.44"/></g></g></svg>